<svg width="627" height="600" viewBox="0 0 627 600" fill="none" xmlns="http://www.w3.org/2000/svg">
<path d="M582.298 91.743L588.597 109.766Z" fill="white"/>
<path d="M588.597 109.766L607.792 109.724Z" fill="white"/>
<path d="M607.792 109.724L605.04 90.1233L602.195 69.8303L601.818 67.1413L599.045 47.8896L597.854 39.6949L595.345 21.0732L594.323 13.4149L593.145 5L570.222 5.01874L550.404 5.33144L502.76 5.94162L480.887 5.70856L430.933 5.31504L424.226 5.32207L374.394 5.35018L327.568 5.35955L280.741 5.35018L230.909 5.32207L224.201 5.31504L174.257 5.70856L152.392 5.94162L104.731 5.33144L84.9041 5.01874L61.981 5L59.7612 13.4149L57.8373 21.0732L53.1145 39.6949L50.8711 47.8896L45.6474 67.1413L44.9394 69.8303L39.5822 90.1233L34.4017 109.724L29.0726 129.864L23.2298 151.913L22.4294 154.93L16.3958 178.287L13.6997 188.815L7.60881 210.995L5.01564 220.355L2 231.725L28.8878 231.746L52.1443 232.099L108.051 232.787L133.695 232.524L192.27 232.08L200.137 232.087L258.584 232.121L279.246 232.125H279.663H281.551L284.977 232.126L289.929 232.127L296.304 232.128H300.618L303.763 232.129L312.202 232.13H313.506L321.339 232.129L330.546 232.128L339.189 232.126H342.485L346.939 232.125L353.67 232.123L359.041 232.122L362.928 232.121H365.295H366.191H368.429L426.876 232.087L434.743 232.08L493.334 232.524L518.984 232.787L574.869 232.099L598.114 231.746L625 231.725L623.399 220.355L622.022 210.995L618.787 188.815L617.355 178.287L614.15 154.93L613.725 151.913L610.622 129.864L607.792 109.724Z" fill="white"/>
<path d="M605.04 90.1233L582.298 91.743Z" fill="white"/>
<path d="M568.415 74.7012L582.298 91.743L540.865 98.0697" fill="white"/>
<path d="M540.865 98.0697L545.704 113.268Z" fill="white"/>
<path d="M545.704 113.268L588.597 109.766L586.827 128.26" fill="white"/>
<path d="M529.589 83.6408L540.865 98.0697L499.296 105.382" fill="white"/>
<path d="M499.296 105.382L502.846 117.738Z" fill="white"/>
<path d="M502.846 117.738L545.704 113.268L543.752 128.798" fill="white"/>
<path d="M490.487 93.604L499.296 105.382L459.635 121.209" fill="white"/>
<path d="M459.635 121.209L462.117 130.888Z" fill="white"/>
<path d="M462.117 130.888L502.846 117.738L500.892 130.313" fill="white"/>
<path d="M453.042 111.947L459.635 121.209L424.054 144.673" fill="white"/>
<path d="M424.054 144.673L425.71 151.944Z" fill="white"/>
<path d="M425.71 151.944L462.117 130.888L460.328 140.699" fill="white"/>
<path d="M419.337 137.693L424.054 144.673L394.469 174.456" fill="white"/>
<path d="M394.469 174.456L395.533 179.692Z" fill="white"/>
<path d="M395.533 179.692L425.71 151.944L424.207 159.288" fill="white"/>
<path d="M391.231 169.414L394.469 174.456L390.015 181.412" fill="white"/>
<path d="M373.349 354.412L372.479 352.274L369.591 345.183L367.098 339.061L363.391 329.96L359.752 321.023" fill="white"/>
<path d="M394.996 383.452L392.042 379.489L391.954 379.373L373.349 354.412L374.012 358.344" fill="white"/>
<path d="M374.012 358.344L360.089 323.53L359.46 326.343" fill="white"/>
<path d="M394.996 383.452L396.022 389.208Z" fill="white"/>
<path d="M396.022 389.208L388.546 378.725L388.542 378.719L374.012 358.344L373.181 362.297" fill="white"/>
<path d="M391.873 377.908L392.848 379.64L392.865 379.669L394.996 383.452L423.366 406.53" fill="white"/>
<path d="M423.366 406.53L424.942 414.721Z" fill="white"/>
<path d="M424.942 414.721L396.022 389.208L394.9 395.004" fill="white"/>
<path d="M418.864 398.663L423.366 406.53L456.992 422.654" fill="white"/>
<path d="M456.992 422.654L459.326 433.762Z" fill="white"/>
<path d="M459.326 433.762L424.942 414.721L423.504 422.991" fill="white"/>
<path d="M450.756 412.017L456.992 422.654L494.218 431.169" fill="white"/>
<path d="M494.218 431.169L497.526 445.516Z" fill="white"/>
<path d="M497.526 445.516L459.326 433.762L457.613 445.014" fill="white"/>
<path d="M485.94 417.48L494.218 431.169L533.282 431.771" fill="white"/>
<path d="M533.282 431.771L537.764 449.489Z" fill="white"/>
<path d="M537.764 449.489L497.526 445.516L495.64 460.102" fill="white"/>
<path d="M522.722 414.931L533.282 431.771L572.169 431.396" fill="white"/>
<path d="M572.169 431.396L577.973 452.474Z" fill="white"/>
<path d="M577.973 452.474L537.764 449.489L535.845 467.572" fill="white"/>
<path d="M559.203 411.437L572.169 431.396L593.594 429.539" fill="white"/>
<path d="M363.391 329.96L376.292 329.959L423.383 329.946L429.72 329.943L476.93 330.084L497.601 330.168L542.619 329.973L561.341 329.872L583 329.888L584.055 339.767L584.971 348.517L587.218 369.891L588.274 379.714L590.734 402.641L591.069 405.789L593.594 429.539L596.032 452.456L598.535 475.978L601.274 501.702L601.649 505.22L604.48 532.038L605.746 544.054L608.574 570.349L609.776 581.487L611.178 594.691L586.012 594.672L564.26 594.783L511.956 595L487.94 594.908L433.09 594.752L425.726 594.755L371.015 594.768L319.603 594.773L268.192 594.768L213.48 594.755L206.116 594.752L151.272 594.908L127.258 595L74.9469 594.783L53.1917 594.672L28.0265 594.691L30.6676 581.487L32.9285 570.349L38.254 544.054L40.5312 532.566L40.6366 532.038L45.968 505.22L46.6736 501.702L51.8307 475.978L56.5443 452.456L61.1349 429.539L65.8895 405.789L66.5191 402.641L71.1496 379.714L73.1401 369.891L77.3703 348.517L79.0964 339.767L81.0799 329.888L102.74 329.872L121.465 329.973L166.487 330.168L187.156 330.084L234.362 329.943L240.7 329.946L285.89 329.959" fill="white"/>
<path d="M596.032 452.456L577.973 452.474L576.178 474.068" fill="white"/>
<path d="M602.195 69.8303L568.415 74.7012Z" fill="white"/>
<path d="M547.61 59.0836L568.415 74.7012L529.589 83.6408" fill="white"/>
<path d="M512.394 70.3702L529.589 83.6408L490.487 93.604" fill="white"/>
<path d="M476.801 82.7297L490.487 93.604L453.042 111.947" fill="white"/>
<path d="M442.609 103.366L453.042 111.947L419.337 137.693" fill="white"/>
<path d="M411.739 131.203L419.337 137.693L391.231 169.414" fill="white"/>
<path d="M385.936 164.714L391.231 169.414L383.487 182.665" fill="white"/>
<path d="M391.873 377.908L389.523 374.802L386.435 370.719L386.115 370.296L374.253 354.618L372.479 352.274" fill="white"/>
<path d="M391.873 377.908L418.864 398.663Z" fill="white"/>
<path d="M411.611 391.346L418.864 398.663L450.756 412.017" fill="white"/>
<path d="M440.872 402.154L450.756 412.017L485.446 417.403L485.94 417.48" fill="white"/>
<path d="M473.046 404.832L485.94 417.48L522.722 414.931" fill="white"/>
<path d="M506.559 399.423L522.722 414.931L559.203 411.437" fill="white"/>
<path d="M539.685 393.122L559.203 411.437L591.069 405.789" fill="white"/>
<path d="M580.634 51.608L601.818 67.1413Z" fill="white"/>
<path d="M599.045 47.8896L580.634 51.608Z" fill="white"/>
<path d="M549.441 35.8897L580.634 51.608L547.61 59.0836" fill="white"/>
<path d="M520.68 45.2697L547.61 59.0836L512.394 70.3702" fill="white"/>
<path d="M489.922 58.5918L512.394 70.3702L476.801 82.7297" fill="white"/>
<path d="M458.739 73.0464L476.801 82.7297L442.609 103.366" fill="white"/>
<path d="M428.702 95.6981L442.609 103.366L411.739 131.203" fill="white"/>
<path d="M401.522 125.388L411.739 131.203L385.936 164.714" fill="white"/>
<path d="M378.76 160.492L385.936 164.714L375.891 184.124" fill="white"/>
<path d="M411.611 391.346L403.647 385.381L399.102 381.976L398.409 381.458L395.518 379.292L389.523 374.802" fill="white"/>
<path d="M411.611 391.346L440.872 402.154Z" fill="white"/>
<path d="M427.688 393.339L440.872 402.154L473.046 404.832" fill="white"/>
<path d="M456 393.557L473.046 404.832L506.559 399.423" fill="white"/>
<path d="M485.391 385.646L506.559 399.423L539.685 393.122" fill="white"/>
<path d="M514.355 376.9L539.685 393.122L570.872 384.411" fill="white"/>
<path d="M570.872 384.411L590.734 402.641Z" fill="white"/>
<path d="M541.539 365.941L570.872 384.411L588.274 379.714" fill="white"/>
<path d="M574.887 28.2958L597.854 39.6949Z" fill="white"/>
<path d="M595.345 21.0732L574.887 28.2958Z" fill="white"/>
<path d="M533.488 13.6374L574.887 28.2958L549.441 35.8897" fill="white"/>
<path d="M512.402 22.6109L549.441 35.8897L520.68 45.2697" fill="white"/>
<path d="M488.515 33.5673L520.68 45.2697L489.922 58.5918" fill="white"/>
<path d="M462.912 48.5852L489.922 58.5918L458.739 73.0464" fill="white"/>
<path d="M436.885 64.7955L458.739 73.0464L428.702 95.6981" fill="white"/>
<path d="M411.772 89.1465L428.702 95.6981L401.522 125.388" fill="white"/>
<path d="M389.009 120.406L401.522 125.388L378.76 160.492" fill="white"/>
<path d="M369.93 156.867L378.76 160.492L367.621 185.678" fill="white"/>
<path d="M427.688 393.339L456 393.557Z" fill="white"/>
<path d="M435.356 383.944L456 393.557L485.391 385.646" fill="white"/>
<path d="M459.911 373.93L485.391 385.646L514.355 376.9" fill="white"/>
<path d="M484.047 363.145L514.355 376.9L541.539 365.941" fill="white"/>
<path d="M506.637 350.318L541.539 365.941L565.619 356.489" fill="white"/>
<path d="M565.619 356.489L587.218 369.891Z" fill="white"/>
<path d="M526.604 339.236L565.619 356.489L584.971 348.517" fill="white"/>
<path d="M570.222 5.01874L594.323 13.4149Z" fill="white"/>
<path d="M550.404 5.33144L533.488 13.6374Z" fill="white"/>
<path d="M502.76 5.94162L533.488 13.6374L512.402 22.6109" fill="white"/>
<path d="M470.609 12.0306L512.402 22.6109L488.515 33.5673" fill="white"/>
<path d="M452.071 24.2237L488.515 33.5673L462.912 48.5852" fill="white"/>
<path d="M432.171 40.5756L462.912 48.5852L436.885 64.7955" fill="white"/>
<path d="M411.902 58.1736L436.885 64.7955L411.772 89.1465" fill="white"/>
<path d="M392.328 83.8762L411.772 89.1465L389.009 120.406" fill="white"/>
<path d="M374.58 116.392L389.009 120.406L369.93 156.867" fill="white"/>
<path d="M359.712 153.939L369.93 156.867L359.2 186.609" fill="white"/>
<path d="M411.624 385.801L427.688 393.339L403.647 385.381" fill="white"/>
<path d="M411.624 385.801L434.958 383.976L435.356 383.944" fill="white"/>
<path d="M411.738 376.226L435.356 383.944L459.911 373.93" fill="white"/>
<path d="M430.886 364.546L459.911 373.93L484.047 363.145" fill="white"/>
<path d="M449.664 352.151L484.047 363.145L506.637 350.318" fill="white"/>
<path d="M467.198 337.858L506.637 350.318L526.604 339.236" fill="white"/>
<path d="M497.601 330.168L526.604 339.236L542.619 329.973" fill="white"/>
<path d="M561.341 329.872L584.055 339.767Z" fill="white"/>
<path d="M480.887 5.70856L470.609 12.0306Z" fill="white"/>
<path d="M430.933 5.31504L470.609 12.0306L452.071 24.2237" fill="white"/>
<path d="M412.347 17.4215L452.071 24.2237L432.171 40.5756" fill="white"/>
<path d="M398.558 34.7338L432.171 40.5756L411.902 58.1736" fill="white"/>
<path d="M384.494 53.3367L411.902 58.1736L392.328 83.8762" fill="white"/>
<path d="M370.933 80.0195L392.328 83.8762L374.58 116.392" fill="white"/>
<path d="M358.66 113.447L374.58 116.392L359.712 153.939" fill="white"/>
<path d="M348.41 151.79L359.712 153.939L350.474 187.574" fill="white"/>
<path d="M411.738 376.226L430.886 364.546Z" fill="white"/>
<path d="M399.127 357.698L430.886 364.546L449.664 352.151" fill="white"/>
<path d="M412.156 344.144L449.664 352.151L467.198 337.858" fill="white"/>
<path d="M429.72 329.943L467.198 337.858L476.345 330.552L476.93 330.084" fill="white"/>
<path d="M424.226 5.32207L412.347 17.4215Z" fill="white"/>
<path d="M370.365 13.2896L412.347 17.4215L398.558 34.7338" fill="white"/>
<path d="M362.963 31.1816L398.558 34.7338L384.494 53.3367" fill="white"/>
<path d="M355.413 50.3912L384.494 53.3367L370.933 80.0195" fill="white"/>
<path d="M348.184 77.6678L370.933 80.0195L358.824 112.999L358.66 113.447" fill="white"/>
<path d="M341.7 111.649L358.66 113.447L348.41 151.79" fill="white"/>
<path d="M336.353 150.477L347.986 151.745L348.41 151.79L341.622 188.427" fill="white"/>
<path d="M399.127 357.698L412.156 344.144Z" fill="white"/>
<path d="M372.496 339.278L412.156 344.144L423.383 329.946" fill="white"/>
<path d="M374.394 5.35018L370.365 13.2896Z" fill="white"/>
<path d="M327.165 11.9041L370.365 13.2896L362.963 31.1816" fill="white"/>
<path d="M326.298 29.9893L362.963 31.1816L355.413 50.3912" fill="white"/>
<path d="M325.426 49.4016L355.413 50.3912L348.184 77.6678" fill="white"/>
<path d="M324.705 76.8773L348.184 77.6678L341.7 111.649" fill="white"/>
<path d="M324.181 111.045L341.7 111.649L336.353 150.477" fill="white"/>
<path d="M323.887 150.036L335.582 150.449L336.353 150.477L332.764 188.748" fill="white"/>
<path d="M372.496 339.278L376.292 329.959Z" fill="white"/>
<path d="M327.568 5.35955L327.165 11.9041Z" fill="white"/>
<path d="M283.793 13.2896L327.165 11.9041L326.298 29.9893" fill="white"/>
<path d="M289.486 31.1816L326.298 29.9893L325.426 49.4016" fill="white"/>
<path d="M295.317 50.3912L325.426 49.4016L324.705 76.8773" fill="white"/>
<path d="M301.129 77.6678L324.705 76.8773L324.181 111.045" fill="white"/>
<path d="M306.588 111.649L324.181 111.045L323.887 150.036" fill="white"/>
<path d="M311.371 150.477L323.066 150.064L323.887 150.036L323.848 189.071" fill="white"/>
<path d="M280.741 5.35018L283.793 13.2896Z" fill="white"/>
<path d="M241.299 17.4215L283.793 13.2896L289.486 31.1816" fill="white"/>
<path d="M253.452 34.7338L289.486 31.1816L295.317 50.3912" fill="white"/>
<path d="M265.872 53.3367L295.317 50.3912L301.129 77.6678" fill="white"/>
<path d="M278.095 80.0195L301.129 77.6678L306.588 111.649" fill="white"/>
<path d="M289.414 113.447L306.588 111.649L311.371 150.477" fill="white"/>
<path d="M299.16 151.79L311.371 150.477L314.935 189.181" fill="white"/>
<path d="M230.909 5.32207L241.299 17.4215Z" fill="white"/>
<path d="M200.731 24.2237L241.299 17.4215L253.452 34.7338" fill="white"/>
<path d="M219.116 40.5756L253.452 34.7338L265.872 53.3367" fill="white"/>
<path d="M237.869 58.1736L265.872 53.3367L278.095 80.0195" fill="white"/>
<path d="M256.23 83.8762L278.095 80.0195L289.414 113.447" fill="white"/>
<path d="M273.142 116.392L289.414 113.447L299.16 151.79" fill="white"/>
<path d="M287.608 153.939L299.16 151.79L306.009 188.857" fill="white"/>
<path d="M262.002 357.698L275.418 356.056Z" fill="white"/>
<path d="M262.002 357.698L250.598 344.144Z" fill="white"/>
<path d="M250.598 344.144L282.022 340.332Z" fill="white"/>
<path d="M212.337 352.151L250.598 344.144L240.7 329.946" fill="white"/>
<path d="M183.691 12.0306L224.201 5.31504Z" fill="white"/>
<path d="M174.257 5.70856L183.691 12.0306Z" fill="white"/>
<path d="M140.587 22.6109L183.691 12.0306L200.731 24.2237" fill="white"/>
<path d="M163.129 33.5673L200.731 24.2237L219.116 40.5756" fill="white"/>
<path d="M187.384 48.5852L219.116 40.5756L237.869 58.1736" fill="white"/>
<path d="M212.07 64.7955L237.869 58.1736L256.23 83.8762" fill="white"/>
<path d="M236.144 89.1465L256.23 83.8762L273.142 116.392" fill="white"/>
<path d="M258.233 120.406L273.142 116.392L287.608 153.939" fill="white"/>
<path d="M277.048 156.867L287.608 153.939L297.156 188.535" fill="white"/>
<path d="M247.171 376.226L263.58 372.726Z" fill="white"/>
<path d="M247.171 376.226L229.598 364.546Z" fill="white"/>
<path d="M229.598 364.546L262.002 357.698L268.856 365.298" fill="white"/>
<path d="M199.688 373.93L229.598 364.546L212.337 352.151" fill="white"/>
<path d="M176.921 363.145L212.337 352.151L196.141 337.858" fill="white"/>
<path d="M196.141 337.858L234.362 329.943Z" fill="white"/>
<path d="M155.532 350.318L196.141 337.858L187.289 330.199L187.156 330.084" fill="white"/>
<path d="M120.71 13.6374L152.392 5.94162Z" fill="white"/>
<path d="M104.731 5.33144L120.71 13.6374Z" fill="white"/>
<path d="M77.4932 28.2958L120.71 13.6374L140.587 22.6109" fill="white"/>
<path d="M101.901 35.8897L140.587 22.6109L163.129 33.5673" fill="white"/>
<path d="M129.512 45.2697L163.129 33.5673L187.384 48.5852" fill="white"/>
<path d="M159.137 58.5918L187.384 48.5852L212.07 64.7955" fill="white"/>
<path d="M189.201 73.0464L212.07 64.7955L236.144 89.1465" fill="white"/>
<path d="M218.416 95.6981L236.144 89.1465L258.233 120.406" fill="white"/>
<path d="M245.126 125.388L258.233 120.406L277.048 156.867" fill="white"/>
<path d="M267.794 160.492L277.048 156.867L288.371 187.901" fill="white"/>
<path d="M244.955 385.801L222.824 383.944Z" fill="white"/>
<path d="M222.824 383.944L247.171 376.226L258.219 378.532" fill="white"/>
<path d="M201.272 393.557L222.824 383.944L199.688 373.93" fill="white"/>
<path d="M173.106 385.646L199.688 373.93L176.921 363.145" fill="white"/>
<path d="M145.32 376.9L176.921 363.145L155.532 350.318" fill="white"/>
<path d="M119.162 365.941L155.532 350.318L136.633 339.236" fill="white"/>
<path d="M136.633 339.236L166.487 330.168Z" fill="white"/>
<path d="M95.9977 356.489L136.633 339.236L121.465 329.973" fill="white"/>
<path d="M59.7612 13.4149L84.9041 5.01874Z" fill="white"/>
<path d="M57.8373 21.0732L77.4932 28.2958Z" fill="white"/>
<path d="M53.1145 39.6949L77.4932 28.2958L101.901 35.8897" fill="white"/>
<path d="M68.7588 51.608L101.901 35.8897L129.512 45.2697" fill="white"/>
<path d="M100.869 59.0836L129.512 45.2697L159.137 58.5918" fill="white"/>
<path d="M135.21 70.3702L159.137 58.5918L189.201 73.0464" fill="white"/>
<path d="M169.946 82.7297L189.201 73.0464L218.416 95.6981" fill="white"/>
<path d="M203.577 103.366L218.416 95.6981L245.126 125.388" fill="white"/>
<path d="M234.212 131.203L245.126 125.388L267.794 160.492" fill="white"/>
<path d="M260.125 164.714L267.794 160.492L279.686 186.928" fill="white"/>
<path d="M228.173 393.339L244.955 385.801L252.01 383.463" fill="white"/>
<path d="M228.173 393.339L201.272 393.557Z" fill="white"/>
<path d="M183.162 404.832L201.272 393.557L173.106 385.646" fill="white"/>
<path d="M150.641 399.423L173.106 385.646L145.32 376.9" fill="white"/>
<path d="M118.467 393.122L145.32 376.9L119.162 365.941" fill="white"/>
<path d="M88.0941 384.411L119.162 365.941L95.9977 356.489" fill="white"/>
<path d="M73.1401 369.891L95.9977 356.489L77.3703 348.517" fill="white"/>
<path d="M79.0964 339.767L102.74 329.872Z" fill="white"/>
<path d="M50.8711 47.8896L68.7588 51.608Z" fill="white"/>
<path d="M45.6474 67.1413L68.7588 51.608L100.869 59.0836" fill="white"/>
<path d="M78.1275 74.7012L100.869 59.0836L135.21 70.3702" fill="white"/>
<path d="M116.374 83.6408L135.21 70.3702L169.946 82.7297" fill="white"/>
<path d="M154.922 93.604L169.946 82.7297L203.577 103.366" fill="white"/>
<path d="M192.098 111.947L203.577 103.366L234.212 131.203" fill="white"/>
<path d="M225.84 137.693L234.212 131.203L260.125 164.714" fill="white"/>
<path d="M254.281 169.414L260.125 164.714L271.394 185.998" fill="white"/>
<path d="M242.081 391.346L214.148 402.154Z" fill="white"/>
<path d="M214.148 402.154L228.173 393.339L248.645 386.134" fill="white"/>
<path d="M203.325 412.017L214.148 402.154L183.162 404.832" fill="white"/>
<path d="M169.073 417.48L183.162 404.832L150.641 399.423" fill="white"/>
<path d="M133.018 414.931L150.641 399.423L118.467 393.122" fill="white"/>
<path d="M97.2275 411.437L118.467 393.122L88.0941 384.411" fill="white"/>
<path d="M66.5191 402.641L88.0941 384.411L71.1496 379.714" fill="white"/>
<path d="M44.9394 69.8303L78.1275 74.7012Z" fill="white"/>
<path d="M62.132 91.743L78.1275 74.7012L116.374 83.6408" fill="white"/>
<path d="M103.315 98.0697L116.374 83.6408L154.922 93.604" fill="white"/>
<path d="M144.662 105.382L154.922 93.604L192.098 111.947" fill="white"/>
<path d="M184.377 121.209L192.098 111.947L225.84 137.693" fill="white"/>
<path d="M220.287 144.673L225.84 137.693L254.281 169.414" fill="white"/>
<path d="M250.455 174.456L254.281 169.414L263.491 184.719" fill="white"/>
<path d="M259.901 377.908L253.695 382.904L253.465 383.089L234.121 398.663" fill="white"/>
<path d="M234.121 398.663L242.081 391.346L248.645 386.134L251.819 383.614L252.01 383.463L258.219 378.532L261.059 376.276" fill="white"/>
<path d="M228.859 406.53L234.121 398.663L203.325 412.017" fill="white"/>
<path d="M196.077 422.654L203.325 412.017L169.073 417.48" fill="white"/>
<path d="M159.502 431.169L169.073 417.48L133.018 414.931" fill="white"/>
<path d="M120.871 431.771L133.018 414.931L97.2275 411.437" fill="white"/>
<path d="M82.3882 431.396L97.2275 411.437L65.8895 405.789" fill="white"/>
<path d="M39.5822 90.1233L62.132 91.743Z" fill="white"/>
<path d="M53.5977 109.766L62.132 91.743L103.315 98.0697" fill="white"/>
<path d="M96.5967 113.268L103.315 98.0697L144.662 105.382" fill="white"/>
<path d="M139.59 117.738L144.662 105.382L184.377 121.209" fill="white"/>
<path d="M180.718 130.888L184.377 121.209L220.287 144.673" fill="white"/>
<path d="M217.763 151.944L220.287 144.673L250.455 174.456" fill="white"/>
<path d="M248.78 179.692L250.455 174.456L256.333 183.311" fill="white"/>
<path d="M276.773 354.412L256.232 383.452Z" fill="white"/>
<path d="M256.232 383.452L257.276 381.874L257.409 381.672L259.901 377.908L261.059 376.276L263.58 372.726L268.856 365.298L275.418 356.056L276.979 353.858" fill="white"/>
<path d="M254.638 389.208L256.232 383.452L228.859 406.53" fill="white"/>
<path d="M226.49 414.721L228.859 406.53L196.077 422.654" fill="white"/>
<path d="M192.684 433.762L196.077 422.654L159.502 431.169" fill="white"/>
<path d="M154.84 445.516L159.502 431.169L120.871 431.771" fill="white"/>
<path d="M114.722 449.489L120.871 431.771L82.3882 431.396" fill="white"/>
<path d="M74.604 452.474L82.3882 431.396L61.1349 429.539" fill="white"/>
<path d="M34.4017 109.724L53.5977 109.766Z" fill="white"/>
<path d="M53.0747 128.26L53.5977 109.766L96.5967 113.268" fill="white"/>
<path d="M96.6295 128.798L96.5967 113.268L139.59 117.738" fill="white"/>
<path d="M139.996 130.313L139.59 117.738L180.718 130.888" fill="white"/>
<path d="M181.312 140.699L180.718 130.888L217.763 151.944" fill="white"/>
<path d="M218.388 159.287L217.763 151.944L248.78 179.692" fill="white"/>
<path d="M249.007 181.871L248.78 179.692L250.548 182.174" fill="white"/>
<path d="M288.581 323.53L277.668 353.058L275.714 358.344" fill="white"/>
<path d="M275.714 358.344L276.773 354.412L276.979 353.858L282.022 340.332L285.89 329.959L288.697 322.428" fill="white"/>
<path d="M276.145 362.297L275.714 358.344L260.306 380.909L259.955 381.422L254.638 389.208" fill="white"/>
<path d="M255.188 395.004L254.638 389.208L226.49 414.721" fill="white"/>
<path d="M227.129 422.991L226.49 414.721L192.684 433.762" fill="white"/>
<path d="M193.324 445.014L192.684 433.762L154.84 445.516" fill="white"/>
<path d="M155.349 460.102L154.84 445.516L114.722 449.489" fill="white"/>
<path d="M114.94 467.572L114.722 449.489L74.604 452.474" fill="white"/>
<path d="M74.37 474.068L74.604 452.474L56.5443 452.456" fill="white"/>
<path d="M29.0726 129.864L53.0747 128.26Z" fill="white"/>
<path d="M60.8939 146.659L53.0747 128.26L96.6295 128.798" fill="white"/>
<path d="M103.632 144.185L96.6295 128.798L139.996 130.313" fill="white"/>
<path d="M146.011 142.72L139.996 130.313L181.312 140.699" fill="white"/>
<path d="M186.229 150.342L181.312 140.699L218.388 159.287" fill="white"/>
<path d="M222.19 166.479L218.388 159.287L244.351 180.834" fill="white"/>
<path d="M294.005 291.151L292.759 288.809L288.918 326.343" fill="white"/>
<path d="M288.918 326.343L288.581 323.53L288.697 322.428L292.437 286.606" fill="white"/>
<path d="M290.335 329.08L288.918 326.343L276.145 362.297" fill="white"/>
<path d="M278.067 366.148L276.145 362.297L255.188 395.004" fill="white"/>
<path d="M257.888 400.662L255.188 395.004L227.129 422.991" fill="white"/>
<path d="M230.798 431.085L227.129 422.991L193.324 445.014" fill="white"/>
<path d="M198.056 456.064L193.446 445.299L193.324 445.014L155.349 460.102" fill="white"/>
<path d="M161.143 474.478L155.349 460.102L114.94 467.572" fill="white"/>
<path d="M121.713 485.464L114.94 467.572L74.37 474.068" fill="white"/>
<path d="M81.9716 495.519L74.37 474.068L51.8307 475.978" fill="white"/>
<path d="M23.2298 151.913L60.8939 146.659Z" fill="white"/>
<path d="M77.1199 164.357L60.8939 146.659L103.632 144.185" fill="white"/>
<path d="M117.605 158.924L103.632 144.185L146.011 142.72" fill="white"/>
<path d="M157.59 154.558L146.011 142.72L186.229 150.342" fill="white"/>
<path d="M195.399 159.506L186.229 150.342L222.19 166.479" fill="white"/>
<path d="M229.099 173.291L222.19 166.479L237.654 178.693" fill="white"/>
<path d="M288.743 254.144L287.309 251.498Z" fill="white"/>
<path d="M288.743 254.144L294.005 291.151Z" fill="white"/>
<path d="M296.164 293.354L294.005 291.151L290.335 329.08" fill="white"/>
<path d="M292.795 331.657L290.335 329.08L278.067 366.148" fill="white"/>
<path d="M281.429 369.776L278.067 366.148L257.888 400.662" fill="white"/>
<path d="M262.675 406.005L257.888 400.662L230.798 431.085" fill="white"/>
<path d="M237.423 438.749L230.798 431.085L198.056 456.064" fill="white"/>
<path d="M206.806 466.56L198.056 456.064L161.143 474.478" fill="white"/>
<path d="M172.167 488.182L161.143 474.478L121.713 485.464" fill="white"/>
<path d="M135.023 502.583L121.713 485.464L81.9716 495.519" fill="white"/>
<path d="M97.4463 516.121L81.9716 495.519L46.6736 501.702" fill="white"/>
<path d="M16.3958 178.287L38.3687 172.932Z" fill="white"/>
<path d="M38.3687 172.932L22.4294 154.93Z" fill="white"/>
<path d="M66.1844 192.048L38.3687 172.932L77.1199 164.357" fill="white"/>
<path d="M101.512 180.728L77.1199 164.357L117.605 158.924" fill="white"/>
<path d="M138.292 172.506L117.605 158.924L157.59 154.558" fill="white"/>
<path d="M174.488 165.424L157.59 154.558L195.399 159.506" fill="white"/>
<path d="M208.608 167.889L195.399 159.506L229.099 173.291L237.654 178.693L238.078 178.96" fill="white"/>
<path d="M291.233 256.636L288.743 254.144L279.814 232.492L279.663 232.125" fill="white"/>
<path d="M291.233 256.636L296.164 293.354Z" fill="white"/>
<path d="M299.171 295.349L296.164 293.354L292.795 331.657" fill="white"/>
<path d="M296.227 333.992L292.795 331.657L281.429 369.776" fill="white"/>
<path d="M286.135 373.07L281.429 369.776L262.675 406.005" fill="white"/>
<path d="M269.418 410.863L262.675 406.005L237.423 438.749" fill="white"/>
<path d="M246.837 445.734L237.423 438.749L206.806 466.56" fill="white"/>
<path d="M219.367 476.154L206.806 466.56L172.167 488.182" fill="white"/>
<path d="M188.18 500.751L172.167 488.182L135.023 502.583" fill="white"/>
<path d="M154.614 518.338L135.023 502.583L97.4463 516.121" fill="white"/>
<path d="M120.54 535.152L97.4463 516.121L61.197 526.163" fill="white"/>
<path d="M61.197 526.163L45.968 505.22Z" fill="white"/>
<path d="M87.5546 548.366L61.197 526.163L40.6366 532.038" fill="white"/>
<path d="M7.60881 210.995L34.0788 203.135Z" fill="white"/>
<path d="M34.0788 203.135L13.6997 188.815Z" fill="white"/>
<path d="M75.1447 222.334L34.0788 203.135L66.1844 192.048" fill="white"/>
<path d="M102.965 208.951L66.1844 192.048L101.512 180.728" fill="white"/>
<path d="M133.49 195.154L101.512 180.728L138.292 172.506" fill="white"/>
<path d="M165.175 184.436L138.292 172.506L174.488 165.424" fill="white"/>
<path d="M196.259 174.935L174.488 165.424L208.608 167.889" fill="white"/>
<path d="M225.491 175.203L208.608 167.889L235.325 178.121L235.55 178.206" fill="white"/>
<path d="M294.71 258.894L291.233 256.636L281.551 232.125" fill="white"/>
<path d="M294.71 258.894L299.171 295.349Z" fill="white"/>
<path d="M302.938 297.077L299.171 295.349L296.227 333.992" fill="white"/>
<path d="M300.529 336.014L296.227 333.992L286.135 373.07" fill="white"/>
<path d="M292.048 375.923L286.135 373.07L269.418 410.863" fill="white"/>
<path d="M277.922 415.08L269.418 410.863L246.837 445.734" fill="white"/>
<path d="M258.768 451.809L246.837 445.734L219.367 476.154" fill="white"/>
<path d="M235.39 484.521L219.367 476.154L188.18 500.751" fill="white"/>
<path d="M208.755 511.742L188.18 500.751L154.614 518.338" fill="white"/>
<path d="M179.986 532.163L154.614 518.338L120.54 535.152" fill="white"/>
<path d="M150.693 551.902L120.54 535.152L87.9478 548.209L87.5546 548.366" fill="white"/>
<path d="M122.244 567.971L87.5546 548.366L57.5764 560.665" fill="white"/>
<path d="M57.5764 560.665L38.254 544.054Z" fill="white"/>
<path d="M96.3171 582.906L57.5764 560.665L32.9285 570.349" fill="white"/>
<path d="M28.8878 231.746L5.01564 220.355Z" fill="white"/>
<path d="M52.1443 232.099L75.1447 222.334Z" fill="white"/>
<path d="M108.051 232.787L75.1447 222.334L102.965 208.951" fill="white"/>
<path d="M147.663 222.944L102.965 208.951L133.49 195.154" fill="white"/>
<path d="M172.125 207.065L133.49 195.154L165.175 184.436" fill="white"/>
<path d="M197.462 194.254L165.175 184.436L196.259 174.935" fill="white"/>
<path d="M222.256 182.741L196.259 174.935L225.491 175.203L235.55 178.206L237.941 178.921L238.078 178.96L244.351 180.834L245.544 181.19L249.007 181.871L250.548 182.174L256.333 183.311L263.491 184.719L268.13 185.631L271.394 185.998L279.686 186.928L288.371 187.901L292.51 188.365L297.156 188.535L306.009 188.857L314.935 189.181L317.863 189.288L323.848 189.071L332.764 188.748L341.622 188.427L343.328 188.365L350.474 187.574L359.2 186.609L367.621 185.678L368.04 185.631L375.891 184.124L383.487 182.665L390.015 181.412L391.168 181.19L395.329 179.991L395.477 179.949L402.573 177.904L405.306 177.117L411.394 175.364L411.948 175.203" fill="white"/>
<path d="M299.067 260.849L294.71 258.894L284.977 232.126" fill="white"/>
<path d="M299.067 260.849L302.938 297.077Z" fill="white"/>
<path d="M307.351 298.481L302.938 297.077L300.529 336.014" fill="white"/>
<path d="M305.57 337.657L300.529 336.014L292.048 375.923" fill="white"/>
<path d="M298.989 378.244L292.048 375.923L277.922 415.08" fill="white"/>
<path d="M287.929 418.513L277.922 415.08L258.768 451.809" fill="white"/>
<path d="M272.86 456.767L258.768 451.809L235.39 484.521" fill="white"/>
<path d="M254.394 491.365L235.39 484.521L208.755 511.742" fill="white"/>
<path d="M233.279 520.757L208.755 511.742L179.986 532.163" fill="white"/>
<path d="M210.392 543.53L179.986 532.163L150.693 551.902" fill="white"/>
<path d="M187.025 565.715L150.693 551.902L122.244 567.971" fill="white"/>
<path d="M164.267 584.178L122.244 567.971L96.3171 582.906" fill="white"/>
<path d="M127.258 595L96.3171 582.906L74.9469 594.783" fill="white"/>
<path d="M53.1917 594.672L30.6676 581.487Z" fill="white"/>
<path d="M133.695 232.524L147.663 222.944Z" fill="white"/>
<path d="M192.27 232.08L147.663 222.944L172.125 207.065" fill="white"/>
<path d="M216.162 215.962L172.125 207.065L197.462 194.254" fill="white"/>
<path d="M234.113 201.571L197.462 194.254L222.256 182.741" fill="white"/>
<path d="M251.65 188.545L222.256 182.741L245.544 181.19" fill="white"/>
<path d="M304.175 262.439L299.067 260.849L289.929 232.127" fill="white"/>
<path d="M304.175 262.439L307.351 298.481Z" fill="white"/>
<path d="M312.273 299.516L307.351 298.481L305.57 337.657" fill="white"/>
<path d="M311.195 338.87L305.57 337.657L298.989 378.244" fill="white"/>
<path d="M306.743 379.958L298.989 378.244L287.929 418.513" fill="white"/>
<path d="M299.128 421.054L287.929 418.513L272.86 456.767" fill="white"/>
<path d="M288.668 460.439L272.86 456.767L254.394 491.365" fill="white"/>
<path d="M275.778 496.441L254.394 491.365L233.279 520.757" fill="white"/>
<path d="M260.97 527.457L233.279 520.757L210.392 543.53" fill="white"/>
<path d="M244.85 551.998L210.756 543.621L210.392 543.53L187.025 565.715" fill="white"/>
<path d="M228.357 576.025L187.025 565.715L164.267 584.178" fill="white"/>
<path d="M206.116 594.752L164.267 584.178L151.272 594.908" fill="white"/>
<path d="M200.137 232.087L216.162 215.962Z" fill="white"/>
<path d="M264.057 221.463L216.162 215.962L234.113 201.571" fill="white"/>
<path d="M273.871 206.088L234.113 201.571L251.65 188.545" fill="white"/>
<path d="M283.451 192.122L251.65 188.545L268.13 185.631" fill="white"/>
<path d="M304.023 232.817L300.618 232.128Z" fill="white"/>
<path d="M304.023 232.817L309.875 263.612Z" fill="white"/>
<path d="M309.875 263.612L304.175 262.439L296.304 232.128" fill="white"/>
<path d="M315.991 264.331L309.875 263.612L312.273 299.516" fill="white"/>
<path d="M317.553 300.151L312.273 299.516L311.195 338.87" fill="white"/>
<path d="M317.231 339.614L311.195 338.87L306.743 379.958" fill="white"/>
<path d="M315.067 381.011L306.743 379.958L299.128 421.054" fill="white"/>
<path d="M311.166 422.613L299.128 421.054L288.668 460.439" fill="white"/>
<path d="M305.687 462.695L288.668 460.439L275.778 496.441" fill="white"/>
<path d="M298.844 499.565L275.778 496.441L260.97 527.457" fill="white"/>
<path d="M290.904 531.584L260.97 527.457L244.85 551.998" fill="white"/>
<path d="M282.188 557.221L244.85 551.998L228.357 576.025" fill="white"/>
<path d="M273.253 582.393L228.357 576.025L213.794 594.359L213.48 594.755" fill="white"/>
<path d="M258.584 232.121L263.933 221.704L264.057 221.463" fill="white"/>
<path d="M314.056 223.324L264.057 221.463L273.871 206.088" fill="white"/>
<path d="M315.319 207.614L273.871 206.088L283.451 192.122" fill="white"/>
<path d="M316.564 193.331L283.451 192.122L292.51 188.365" fill="white"/>
<path d="M312.568 233.802L304.023 232.817L303.763 232.129" fill="white"/>
<path d="M312.568 233.802L315.991 264.331Z" fill="white"/>
<path d="M322.332 264.573L315.991 264.331L317.553 300.151" fill="white"/>
<path d="M323.026 300.365L317.553 300.151L317.231 339.614" fill="white"/>
<path d="M323.488 339.864L317.231 339.614L315.067 381.011" fill="white"/>
<path d="M323.7 381.365L315.067 381.011L311.166 422.613" fill="white"/>
<path d="M323.658 423.138L311.166 422.613L305.687 462.695" fill="white"/>
<path d="M323.361 463.456L305.687 462.695L298.844 499.565" fill="white"/>
<path d="M322.82 500.619L298.844 499.565L290.904 531.584" fill="white"/>
<path d="M322.054 532.978L290.904 531.584L282.188 557.221" fill="white"/>
<path d="M321.088 558.986L282.188 557.221L273.253 582.393" fill="white"/>
<path d="M320.085 584.548L273.253 582.393L268.192 594.768" fill="white"/>
<path d="M313.506 232.13L314.056 223.324Z" fill="white"/>
<path d="M364.287 221.463L314.056 223.324L315.319 207.614" fill="white"/>
<path d="M356.956 206.088L315.319 207.614L316.564 193.331" fill="white"/>
<path d="M349.825 192.122L316.564 193.331L317.863 189.288" fill="white"/>
<path d="M321.43 234.134L312.568 233.802L312.202 232.13" fill="white"/>
<path d="M321.43 234.134L322.332 264.573Z" fill="white"/>
<path d="M328.7 264.331L322.332 264.573L323.026 300.365" fill="white"/>
<path d="M328.522 300.151L323.026 300.365L323.488 339.864" fill="white"/>
<path d="M329.771 339.614L323.488 339.864L323.7 381.365" fill="white"/>
<path d="M332.369 381.011L323.7 381.365L323.658 423.138" fill="white"/>
<path d="M336.201 422.613L323.658 423.138L323.361 463.456" fill="white"/>
<path d="M341.108 462.695L323.361 463.456L322.82 500.619" fill="white"/>
<path d="M346.897 499.565L322.82 500.619L322.054 532.978" fill="white"/>
<path d="M353.334 531.584L322.054 532.978L321.088 558.986" fill="white"/>
<path d="M360.155 557.221L321.088 558.986L320.085 584.548" fill="white"/>
<path d="M367.119 582.393L320.085 584.548L319.603 594.773" fill="white"/>
<path d="M368.429 232.121L364.287 221.463Z" fill="white"/>
<path d="M412.865 215.962L364.287 221.463L356.956 206.088" fill="white"/>
<path d="M397.272 201.571L356.956 206.088L349.825 192.122" fill="white"/>
<path d="M382.067 188.545L349.825 192.122L343.328 188.365" fill="white"/>
<path d="M330.33 233.802L321.43 234.134L321.339 232.129" fill="white"/>
<path d="M330.33 233.802L328.7 264.331Z" fill="white"/>
<path d="M334.895 263.612L328.7 264.331L328.522 300.151" fill="white"/>
<path d="M333.87 299.516L328.522 300.151L329.771 339.614" fill="white"/>
<path d="M335.883 338.87L329.771 339.614L332.369 381.011" fill="white"/>
<path d="M340.8 379.958L332.369 381.011L336.201 422.613" fill="white"/>
<path d="M348.393 421.054L336.201 422.613L341.108 462.695" fill="white"/>
<path d="M358.345 460.439L341.108 462.695L346.897 499.565" fill="white"/>
<path d="M370.26 496.441L346.897 499.565L353.334 531.584" fill="white"/>
<path d="M383.658 527.457L353.334 531.584L360.155 557.221" fill="white"/>
<path d="M397.986 551.998L360.155 557.221L367.119 582.393" fill="white"/>
<path d="M412.613 576.025L367.119 582.393L371.015 594.768" fill="white"/>
<path d="M426.876 232.087L412.865 215.962Z" fill="white"/>
<path d="M458.004 207.065L412.865 215.962L397.272 201.571" fill="white"/>
<path d="M434.827 194.254L397.272 201.571L387.561 193.252L387.491 193.192L382.067 188.545" fill="white"/>
<path d="M412.175 182.741L382.067 188.545L368.04 185.631" fill="white"/>
<path d="M338.986 232.817L330.33 233.802L330.546 232.128" fill="white"/>
<path d="M338.986 232.817L334.895 263.612Z" fill="white"/>
<path d="M340.725 262.439L334.895 263.612L333.87 299.516" fill="white"/>
<path d="M338.903 298.481L333.87 299.516L335.883 338.87" fill="white"/>
<path d="M341.635 337.657L335.883 338.87L340.8 379.958" fill="white"/>
<path d="M348.726 378.244L340.8 379.958L348.393 421.054" fill="white"/>
<path d="M359.843 418.513L348.393 421.054L358.345 460.439" fill="white"/>
<path d="M374.509 456.767L358.345 460.439L370.26 496.441" fill="white"/>
<path d="M392.128 491.365L370.26 496.441L383.658 527.457" fill="white"/>
<path d="M411.981 520.757L383.658 527.457L397.986 551.998" fill="white"/>
<path d="M433.241 543.53L397.986 551.998L412.613 576.025" fill="white"/>
<path d="M454.915 565.715L412.613 576.025L425.726 594.755" fill="white"/>
<path d="M493.334 232.524L480.482 222.944Z" fill="white"/>
<path d="M480.482 222.944L434.743 232.08Z" fill="white"/>
<path d="M526.915 208.951L480.482 222.944L458.004 207.065" fill="white"/>
<path d="M498.117 195.154L458.004 207.065L434.827 194.254" fill="white"/>
<path d="M468.328 184.436L434.827 194.254L412.175 182.741" fill="white"/>
<path d="M439.135 174.935L412.175 182.741L396.309 181.57L396.234 181.564L391.168 181.19" fill="white"/>
<path d="M340.725 262.439L338.903 298.481Z" fill="white"/>
<path d="M343.466 297.077L338.903 298.481L341.635 337.657" fill="white"/>
<path d="M346.845 336.014L341.635 337.657L348.726 378.244" fill="white"/>
<path d="M355.902 375.923L348.726 378.244L359.843 418.513" fill="white"/>
<path d="M370.189 415.08L359.843 418.513L374.509 456.767" fill="white"/>
<path d="M389.079 451.809L374.509 456.767L392.128 491.365" fill="white"/>
<path d="M411.783 484.521L392.128 491.365L411.981 520.757" fill="white"/>
<path d="M437.357 511.742L411.981 520.757L433.241 543.53" fill="white"/>
<path d="M464.716 532.163L433.241 543.53L454.915 565.715" fill="white"/>
<path d="M492.544 551.902L454.915 565.715L475.933 584.178" fill="white"/>
<path d="M475.933 584.178L433.09 594.752Z" fill="white"/>
<path d="M519.478 567.971L475.933 584.178L487.94 594.908" fill="white"/>
<path d="M574.869 232.099L553.526 222.487L553.187 222.334" fill="white"/>
<path d="M553.187 222.334L518.984 232.787Z" fill="white"/>
<path d="M596.632 203.135L553.187 222.334L526.915 208.951" fill="white"/>
<path d="M565.793 192.048L526.915 208.951L498.117 195.154" fill="white"/>
<path d="M531.884 180.728L498.117 195.154L468.328 184.436" fill="white"/>
<path d="M496.685 172.506L468.328 184.436L439.135 174.935" fill="white"/>
<path d="M462.076 165.424L439.135 174.935L411.948 175.203L429.723 167.889" fill="white"/>
<path d="M346.009 260.849L340.725 262.439L346.939 232.125" fill="white"/>
<path d="M346.009 260.849L343.466 297.077Z" fill="white"/>
<path d="M347.418 295.349L343.466 297.077L346.845 336.014" fill="white"/>
<path d="M351.357 333.992L346.845 336.014L355.902 375.923" fill="white"/>
<path d="M362.103 373.07L355.902 375.923L370.189 415.08" fill="white"/>
<path d="M379.108 410.863L370.189 415.08L389.079 451.809" fill="white"/>
<path d="M401.598 445.734L389.079 451.809L411.783 484.521" fill="white"/>
<path d="M428.604 476.154L411.783 484.521L437.357 511.742" fill="white"/>
<path d="M458.971 500.751L437.357 511.742L464.716 532.163" fill="white"/>
<path d="M491.39 518.338L464.716 532.163L492.544 551.902" fill="white"/>
<path d="M524.27 535.152L492.544 551.902L519.478 567.971" fill="white"/>
<path d="M556.008 548.366L519.478 567.971L544.034 582.906" fill="white"/>
<path d="M544.034 582.906L511.956 595Z" fill="white"/>
<path d="M584.863 560.665L544.034 582.906L564.26 594.783" fill="white"/>
<path d="M623.399 220.355L598.114 231.746Z" fill="white"/>
<path d="M622.022 210.995L596.632 203.135Z" fill="white"/>
<path d="M618.787 188.815L596.632 203.135L565.793 192.048" fill="white"/>
<path d="M595.978 172.932L565.793 192.048L531.884 180.728" fill="white"/>
<path d="M558.306 164.357L531.884 180.728L496.685 172.506" fill="white"/>
<path d="M519.052 158.924L496.685 172.506L462.076 165.424" fill="white"/>
<path d="M480.313 154.558L462.076 165.424L429.723 167.889" fill="white"/>
<path d="M443.951 159.506L429.723 167.889L411.394 175.364" fill="white"/>
<path d="M350.582 258.894L346.009 260.849L353.67 232.123" fill="white"/>
<path d="M350.582 258.894L347.418 295.349Z" fill="white"/>
<path d="M350.639 293.354L347.418 295.349L351.357 333.992" fill="white"/>
<path d="M355.031 331.657L351.357 333.992L362.103 373.07" fill="white"/>
<path d="M367.143 369.776L362.103 373.07L379.108 410.863" fill="white"/>
<path d="M386.329 406.005L379.108 410.863L401.598 445.734" fill="white"/>
<path d="M411.686 438.749L401.598 445.734L428.604 476.154" fill="white"/>
<path d="M442.078 466.56L428.604 476.154L458.971 500.751" fill="white"/>
<path d="M476.17 488.182L458.971 500.751L491.39 518.338" fill="white"/>
<path d="M512.465 502.583L491.39 518.338L524.27 535.152" fill="white"/>
<path d="M549.152 516.121L524.27 535.152L556.008 548.366" fill="white"/>
<path d="M584.451 526.163L556.008 548.366L584.863 560.665" fill="white"/>
<path d="M605.746 544.054L584.863 560.665L608.574 570.349" fill="white"/>
<path d="M609.776 581.487L586.012 594.672Z" fill="white"/>
<path d="M617.355 178.287L595.978 172.932Z" fill="white"/>
<path d="M614.15 154.93L595.978 172.932L558.306 164.357" fill="white"/>
<path d="M576.727 146.659L558.306 164.357L519.052 158.924" fill="white"/>
<path d="M534.846 144.185L519.052 158.924L480.313 154.558" fill="white"/>
<path d="M493.349 142.721L480.313 154.558L443.951 159.506" fill="white"/>
<path d="M454.237 150.342L443.951 159.506L411.822 173.291" fill="white"/>
<path d="M411.822 173.291L410.069 174.321L405.306 177.117" fill="white"/>
<path d="M354.307 256.636L350.582 258.894L359.041 232.122" fill="white"/>
<path d="M354.307 256.636L350.639 293.354Z" fill="white"/>
<path d="M353.034 291.151L350.639 293.354L355.031 331.657" fill="white"/>
<path d="M357.759 329.08L355.031 331.657L367.143 369.776" fill="white"/>
<path d="M370.871 366.148L367.143 369.776L386.329 406.005" fill="white"/>
<path d="M391.643 400.662L386.329 406.005L411.686 438.749" fill="white"/>
<path d="M419.054 431.085L411.686 438.749L442.078 466.56" fill="white"/>
<path d="M451.829 456.064L442.078 466.56L476.17 488.182" fill="white"/>
<path d="M488.488 474.478L476.17 488.182L512.465 502.583" fill="white"/>
<path d="M527.386 485.464L512.465 502.583L549.152 516.121" fill="white"/>
<path d="M566.561 495.519L549.152 516.121L584.451 526.163" fill="white"/>
<path d="M601.649 505.22L584.451 526.163L604.48 532.038" fill="white"/>
<path d="M613.725 151.913L576.727 146.659Z" fill="white"/>
<path d="M586.827 128.26L576.727 146.659L534.846 144.185" fill="white"/>
<path d="M543.752 128.798L534.846 144.185L493.349 142.721" fill="white"/>
<path d="M500.892 130.313L493.349 142.721L454.237 150.342" fill="white"/>
<path d="M460.328 140.699L454.237 150.342L419.544 166.479" fill="white"/>
<path d="M419.544 166.479L411.822 173.291Z" fill="white"/>
<path d="M424.207 159.288L419.544 166.479L410.527 173.942L410.069 174.321" fill="white"/>
<path d="M357.072 254.144L354.307 256.636L362.928 232.121" fill="white"/>
<path d="M357.072 254.144L353.034 291.151Z" fill="white"/>
<path d="M354.53 288.809L353.034 291.151L357.759 329.08" fill="white"/>
<path d="M359.46 326.343L357.759 329.08L370.871 366.148" fill="white"/>
<path d="M373.181 362.297L370.871 366.148L391.643 400.662" fill="white"/>
<path d="M394.9 395.004L391.643 400.662L419.054 431.085" fill="white"/>
<path d="M423.504 422.991L419.054 431.085L451.829 456.064" fill="white"/>
<path d="M457.613 445.014L451.829 456.064L488.488 474.478" fill="white"/>
<path d="M495.64 460.102L488.488 474.478L527.386 485.464" fill="white"/>
<path d="M535.845 467.572L527.386 485.464L566.561 495.519" fill="white"/>
<path d="M576.178 474.068L566.561 495.519L601.274 501.702" fill="white"/>
<path d="M610.622 129.864L587.272 128.289L586.827 128.26L543.752 128.798L500.892 130.313L460.328 140.699L424.207 159.288L402.573 177.904" fill="white"/>
<path d="M358.798 251.498L359.261 250.281L366.191 232.121" fill="white"/>
<path d="M395.329 179.991L395.533 179.692L395.477 179.949" fill="white"/>
<path d="M339.189 232.126L338.986 232.817L342.485 232.126" fill="white"/>
<path d="M369.591 345.183L372.496 339.278L367.098 339.061" fill="white"/>
<path d="M386.115 370.296L399.127 357.698L374.253 354.618" fill="white"/>
<path d="M399.102 381.976L411.624 385.801L398.409 381.458" fill="white"/>
<path d="M395.518 379.292L411.738 376.226L386.435 370.719" fill="white"/>
<path d="M625 231.725L623.399 220.355L622.022 210.995L618.787 188.815L617.355 178.287L614.15 154.93L601.818 67.1413L599.045 47.8896L597.854 39.6949L595.345 21.0732L594.323 13.4149L593.145 5L570.222 5.01874L550.404 5.33144L502.76 5.94162L480.887 5.70856L430.933 5.31504H224.201L174.257 5.70856L152.392 5.94162L104.731 5.33144L84.9041 5.01874L61.981 5L59.7612 13.4149L57.8373 21.0732L53.1145 39.6949L50.8711 47.8896L45.6474 67.1413L22.4294 154.93L16.3958 178.287L13.6997 188.815L7.60881 210.995L5.01564 220.355L2 231.725L28.8878 231.746L52.1443 232.099L108.051 232.787L133.695 232.524L192.27 232.08L279.246 232.125L287.309 251.498L292.437 286.606L288.697 322.428L285.89 329.959L234.362 329.943L187.156 330.084L166.487 330.168L121.465 329.973L102.74 329.872L81.0799 329.888L79.0964 339.767L73.1401 369.891L66.5191 402.641L45.968 505.22L40.5312 532.566L38.254 544.054L30.6676 581.487L28.0265 594.691L53.1917 594.672L127.258 595L151.272 594.908L206.116 594.752H433.09L511.956 595L564.26 594.783L586.012 594.672L611.178 594.691L609.776 581.487L605.746 544.054L587.218 369.891L584.055 339.767L583 329.888L561.341 329.872L542.619 329.973L497.601 330.168L476.93 330.084L429.72 329.943L363.391 329.96L359.752 321.023L355.087 286.403L359.261 250.281L366.191 232.121L434.743 232.08L493.334 232.524L518.984 232.787L574.869 232.099L598.114 231.746L625 231.725Z" fill="white"/>
<path d="M582.298 91.743L588.597 109.766M582.298 91.743L605.04 90.1233M582.298 91.743L568.415 74.7012M582.298 91.743L540.865 98.0697M588.597 109.766L607.792 109.724M588.597 109.766L545.704 113.268M588.597 109.766L586.827 128.26M607.792 109.724L605.04 90.1233M607.792 109.724L610.622 129.864M605.04 90.1233L602.195 69.8303M602.195 69.8303L601.818 67.1413M602.195 69.8303L568.415 74.7012M601.818 67.1413L599.045 47.8896M601.818 67.1413L580.634 51.608M601.818 67.1413L614.15 154.93M599.045 47.8896L597.854 39.6949M599.045 47.8896L580.634 51.608M597.854 39.6949L595.345 21.0732M597.854 39.6949L574.887 28.2958M595.345 21.0732L594.323 13.4149M595.345 21.0732L574.887 28.2958M594.323 13.4149L593.145 5L570.222 5.01874M594.323 13.4149L570.222 5.01874M570.222 5.01874L550.404 5.33144M550.404 5.33144L502.76 5.94162M550.404 5.33144L533.488 13.6374M502.76 5.94162L480.887 5.70856M502.76 5.94162L533.488 13.6374M480.887 5.70856L430.933 5.31504M480.887 5.70856L470.609 12.0306M430.933 5.31504L424.226 5.32207M430.933 5.31504L470.609 12.0306M430.933 5.31504H224.201M424.226 5.32207L374.394 5.35018M424.226 5.32207L412.347 17.4215M374.394 5.35018L370.365 13.2896M374.394 5.35018L327.568 5.35955M327.568 5.35955L327.165 11.9041M327.568 5.35955L280.741 5.35018M280.741 5.35018L283.793 13.2896M280.741 5.35018L230.909 5.32207M230.909 5.32207L224.201 5.31504M230.909 5.32207L241.299 17.4215M224.201 5.31504L174.257 5.70856M224.201 5.31504L183.691 12.0306M174.257 5.70856L183.691 12.0306M174.257 5.70856L152.392 5.94162M152.392 5.94162L104.731 5.33144M152.392 5.94162L120.71 13.6374M104.731 5.33144L84.9041 5.01874M104.731 5.33144L120.71 13.6374M84.9041 5.01874L61.981 5L59.7612 13.4149M84.9041 5.01874L59.7612 13.4149M59.7612 13.4149L57.8373 21.0732M57.8373 21.0732L53.1145 39.6949M57.8373 21.0732L77.4932 28.2958M53.1145 39.6949L50.8711 47.8896M53.1145 39.6949L77.4932 28.2958M50.8711 47.8896L45.6474 67.1413M50.8711 47.8896L68.7588 51.608M45.6474 67.1413L44.9394 69.8303M45.6474 67.1413L68.7588 51.608M45.6474 67.1413L22.4294 154.93M44.9394 69.8303L39.5822 90.1233M44.9394 69.8303L78.1275 74.7012M39.5822 90.1233L34.4017 109.724M39.5822 90.1233L62.132 91.743M34.4017 109.724L29.0726 129.864M34.4017 109.724L53.5977 109.766M29.0726 129.864L23.2298 151.913M29.0726 129.864L53.0747 128.26M23.2298 151.913L22.4294 154.93M23.2298 151.913L60.8939 146.659M22.4294 154.93L16.3958 178.287M22.4294 154.93L38.3687 172.932M16.3958 178.287L13.6997 188.815M16.3958 178.287L38.3687 172.932M13.6997 188.815L7.60881 210.995M13.6997 188.815L34.0788 203.135M7.60881 210.995L5.01564 220.355M7.60881 210.995L34.0788 203.135M5.01564 220.355L2 231.725L28.8878 231.746M5.01564 220.355L28.8878 231.746M28.8878 231.746L52.1443 232.099M52.1443 232.099L108.051 232.787M52.1443 232.099L75.1447 222.334M108.051 232.787L133.695 232.524M108.051 232.787L75.1447 222.334M133.695 232.524L192.27 232.08M133.695 232.524L147.663 222.944M192.27 232.08L200.137 232.087M192.27 232.08L147.663 222.944M192.27 232.08L279.246 232.125M200.137 232.087L258.584 232.121M200.137 232.087L216.162 215.962M258.584 232.121L263.933 221.704L264.057 221.463M258.584 232.121L279.246 232.125M279.246 232.125H279.663M279.246 232.125L287.309 251.498M279.663 232.125L279.814 232.492L288.743 254.144M279.663 232.125H281.551M281.551 232.125L284.977 232.126M281.551 232.125L291.233 256.636M284.977 232.126L289.929 232.127M284.977 232.126L294.71 258.894M289.929 232.127L296.304 232.128M289.929 232.127L299.067 260.849M296.304 232.128H300.618M296.304 232.128L304.175 262.439M300.618 232.128L303.763 232.129M300.618 232.128L304.023 232.817M303.763 232.129L304.023 232.817M303.763 232.129L312.202 232.13M312.202 232.13H313.506M312.202 232.13L312.568 233.802M313.506 232.13L314.056 223.324M313.506 232.13L321.339 232.129M321.339 232.129L321.43 234.134M321.339 232.129L330.546 232.128M330.546 232.128L330.33 233.802M330.546 232.128L339.189 232.126M339.189 232.126L338.986 232.817M339.189 232.126H342.485M342.485 232.126L346.939 232.125M342.485 232.126L338.986 232.817M346.939 232.125L353.67 232.123M346.939 232.125L340.725 262.439M353.67 232.123L359.041 232.122M353.67 232.123L346.009 260.849M359.041 232.122L362.928 232.121M359.041 232.122L350.582 258.894M362.928 232.121H365.295M362.928 232.121L354.307 256.636M365.295 232.121H366.191M365.295 232.121L357.072 254.144M366.191 232.121H368.429M366.191 232.121L359.261 250.281M366.191 232.121L434.743 232.08M368.429 232.121L426.876 232.087M368.429 232.121L364.287 221.463M426.876 232.087L434.743 232.08M426.876 232.087L412.865 215.962M434.743 232.08L493.334 232.524M434.743 232.08L480.482 222.944M493.334 232.524L518.984 232.787M493.334 232.524L480.482 222.944M518.984 232.787L574.869 232.099M518.984 232.787L553.187 222.334M574.869 232.099L598.114 231.746M574.869 232.099L553.526 222.487L553.187 222.334M598.114 231.746L625 231.725L623.399 220.355M598.114 231.746L623.399 220.355M623.399 220.355L622.022 210.995M622.022 210.995L618.787 188.815M622.022 210.995L596.632 203.135M618.787 188.815L617.355 178.287M618.787 188.815L596.632 203.135M617.355 178.287L614.15 154.93M617.355 178.287L595.978 172.932M614.15 154.93L613.725 151.913M614.15 154.93L595.978 172.932M613.725 151.913L610.622 129.864M613.725 151.913L576.727 146.659M610.622 129.864L587.272 128.289L586.827 128.26M568.415 74.7012L547.61 59.0836M568.415 74.7012L529.589 83.6408M540.865 98.0697L545.704 113.268M540.865 98.0697L529.589 83.6408M540.865 98.0697L499.296 105.382M545.704 113.268L502.846 117.738M545.704 113.268L543.752 128.798M586.827 128.26L576.727 146.659M586.827 128.26L543.752 128.798M529.589 83.6408L512.394 70.3702M529.589 83.6408L490.487 93.604M499.296 105.382L502.846 117.738M499.296 105.382L490.487 93.604M499.296 105.382L459.635 121.209M502.846 117.738L462.117 130.888M502.846 117.738L500.892 130.313M543.752 128.798L534.846 144.185M543.752 128.798L500.892 130.313M490.487 93.604L476.801 82.7297M490.487 93.604L453.042 111.947M459.635 121.209L462.117 130.888M459.635 121.209L453.042 111.947M459.635 121.209L424.054 144.673M462.117 130.888L460.328 140.699M462.117 130.888L425.71 151.944M500.892 130.313L493.349 142.721M500.892 130.313L460.328 140.699M453.042 111.947L442.609 103.366M453.042 111.947L419.337 137.693M424.054 144.673L425.71 151.944M424.054 144.673L419.337 137.693M424.054 144.673L394.469 174.456M425.71 151.944L424.207 159.288M425.71 151.944L395.533 179.692M460.328 140.699L454.237 150.342M460.328 140.699L424.207 159.288M419.337 137.693L411.739 131.203M419.337 137.693L391.231 169.414M394.469 174.456L395.533 179.692M394.469 174.456L391.231 169.414M394.469 174.456L390.015 181.412M395.533 179.692L395.329 179.991M395.533 179.692L395.477 179.949M424.207 159.288L419.544 166.479M424.207 159.288L402.573 177.904M391.231 169.414L385.936 164.714M391.231 169.414L383.487 182.665M390.015 181.412L383.487 182.665M390.015 181.412L391.168 181.19M360.089 323.53L359.46 326.343M360.089 323.53L359.752 321.023M360.089 323.53L374.012 358.344M359.752 321.023L363.391 329.96M359.752 321.023L355.087 286.403M355.087 286.403L354.53 288.809M355.087 286.403L359.261 250.281M359.261 250.281L358.798 251.498M373.349 354.412L372.479 352.274M373.349 354.412L374.012 358.344M373.349 354.412L391.954 379.373L392.042 379.489L394.996 383.452M372.479 352.274L369.591 345.183M372.479 352.274L374.253 354.618M369.591 345.183L367.098 339.061M369.591 345.183L372.496 339.278M367.098 339.061L363.391 329.96M367.098 339.061L372.496 339.278M363.391 329.96L376.292 329.959M363.391 329.96L429.72 329.943M394.996 383.452L396.022 389.208M394.996 383.452L392.865 379.669L392.848 379.64L391.873 377.908M394.996 383.452L423.366 406.53M374.012 358.344L373.181 362.297M374.012 358.344L388.542 378.719L388.546 378.725L396.022 389.208M359.46 326.343L357.759 329.08M359.46 326.343L354.53 288.809M359.46 326.343L373.181 362.297M396.022 389.208L394.9 395.004M396.022 389.208L424.942 414.721M373.181 362.297L370.871 366.148M373.181 362.297L394.9 395.004M391.873 377.908L389.523 374.802M391.873 377.908L418.864 398.663M423.366 406.53L424.942 414.721M423.366 406.53L418.864 398.663M423.366 406.53L456.992 422.654M424.942 414.721L423.504 422.991M424.942 414.721L459.326 433.762M394.9 395.004L391.643 400.662M394.9 395.004L423.504 422.991M418.864 398.663L411.611 391.346M418.864 398.663L450.756 412.017M456.992 422.654L459.326 433.762M456.992 422.654L450.756 412.017M456.992 422.654L494.218 431.169M459.326 433.762L457.613 445.014M459.326 433.762L497.526 445.516M423.504 422.991L419.054 431.085M423.504 422.991L457.613 445.014M450.756 412.017L440.872 402.154M450.756 412.017L485.446 417.403L485.94 417.48M494.218 431.169L497.526 445.516M494.218 431.169L485.94 417.48M494.218 431.169L533.282 431.771M497.526 445.516L537.764 449.489M497.526 445.516L495.64 460.102M457.613 445.014L451.829 456.064M457.613 445.014L495.64 460.102M485.94 417.48L473.046 404.832M485.94 417.48L522.722 414.931M533.282 431.771L537.764 449.489M533.282 431.771L522.722 414.931M533.282 431.771L572.169 431.396M537.764 449.489L577.973 452.474M537.764 449.489L535.845 467.572M495.64 460.102L488.488 474.478M495.64 460.102L535.845 467.572M522.722 414.931L506.559 399.423M522.722 414.931L559.203 411.437M572.169 431.396L577.973 452.474M572.169 431.396L559.203 411.437M572.169 431.396L593.594 429.539M577.973 452.474L596.032 452.456M577.973 452.474L576.178 474.068M535.845 467.572L527.386 485.464M535.845 467.572L576.178 474.068M559.203 411.437L539.685 393.122M559.203 411.437L591.069 405.789M593.594 429.539L591.069 405.789M593.594 429.539L596.032 452.456M376.292 329.959L372.496 339.278M376.292 329.959L423.383 329.946M423.383 329.946L429.72 329.943M423.383 329.946L412.156 344.144M429.72 329.943L476.93 330.084M429.72 329.943L467.198 337.858M476.93 330.084L476.345 330.552L467.198 337.858M476.93 330.084L497.601 330.168M497.601 330.168L542.619 329.973M497.601 330.168L526.604 339.236M542.619 329.973L561.341 329.872M542.619 329.973L526.604 339.236M561.341 329.872L583 329.888L584.055 339.767M561.341 329.872L584.055 339.767M584.055 339.767L584.971 348.517M584.055 339.767L587.218 369.891M584.971 348.517L587.218 369.891M584.971 348.517L565.619 356.489M587.218 369.891L588.274 379.714M587.218 369.891L565.619 356.489M587.218 369.891L605.746 544.054M588.274 379.714L590.734 402.641M588.274 379.714L570.872 384.411M590.734 402.641L591.069 405.789M590.734 402.641L570.872 384.411M596.032 452.456L598.535 475.978M598.535 475.978L601.274 501.702M598.535 475.978L576.178 474.068M601.274 501.702L601.649 505.22M601.274 501.702L566.561 495.519M601.649 505.22L604.48 532.038M601.649 505.22L584.451 526.163M604.48 532.038L605.746 544.054M604.48 532.038L584.451 526.163M605.746 544.054L608.574 570.349M605.746 544.054L584.863 560.665M605.746 544.054L609.776 581.487M608.574 570.349L609.776 581.487M608.574 570.349L584.863 560.665M609.776 581.487L611.178 594.691L586.012 594.672M609.776 581.487L586.012 594.672M586.012 594.672L564.26 594.783M564.26 594.783L511.956 595M564.26 594.783L544.034 582.906M511.956 595L487.94 594.908M511.956 595L544.034 582.906M511.956 595L433.09 594.752M487.94 594.908L433.09 594.752M487.94 594.908L475.933 584.178M433.09 594.752L425.726 594.755M433.09 594.752L475.933 584.178M433.09 594.752H206.116M425.726 594.755L371.015 594.768M425.726 594.755L412.613 576.025M371.015 594.768L319.603 594.773M371.015 594.768L367.119 582.393M319.603 594.773L320.085 584.548M319.603 594.773L268.192 594.768M268.192 594.768L213.48 594.755M268.192 594.768L273.253 582.393M213.48 594.755L206.116 594.752M213.48 594.755L213.794 594.359L228.357 576.025M206.116 594.752L151.272 594.908M206.116 594.752L164.267 584.178M151.272 594.908L127.258 595M151.272 594.908L164.267 584.178M127.258 595L74.9469 594.783M127.258 595L96.3171 582.906M127.258 595L53.1917 594.672M74.9469 594.783L53.1917 594.672M74.9469 594.783L96.3171 582.906M53.1917 594.672L28.0265 594.691L30.6676 581.487M53.1917 594.672L30.6676 581.487M30.6676 581.487L32.9285 570.349M30.6676 581.487L38.254 544.054M32.9285 570.349L38.254 544.054M32.9285 570.349L57.5764 560.665M38.254 544.054L40.5312 532.566M38.254 544.054L57.5764 560.665M40.5312 532.566L40.6366 532.038M40.5312 532.566L45.968 505.22M40.6366 532.038L45.968 505.22M40.6366 532.038L61.197 526.163M45.968 505.22L46.6736 501.702M45.968 505.22L61.197 526.163M45.968 505.22L66.5191 402.641M46.6736 501.702L51.8307 475.978M46.6736 501.702L81.9716 495.519M51.8307 475.978L56.5443 452.456M51.8307 475.978L74.37 474.068M56.5443 452.456L61.1349 429.539M56.5443 452.456L74.604 452.474M61.1349 429.539L65.8895 405.789M61.1349 429.539L82.3882 431.396M65.8895 405.789L66.5191 402.641M65.8895 405.789L97.2275 411.437M66.5191 402.641L71.1496 379.714M66.5191 402.641L88.0941 384.411M66.5191 402.641L73.1401 369.891M71.1496 379.714L73.1401 369.891M71.1496 379.714L88.0941 384.411M73.1401 369.891L77.3703 348.517M73.1401 369.891L95.9977 356.489M73.1401 369.891L79.0964 339.767M77.3703 348.517L79.0964 339.767M77.3703 348.517L95.9977 356.489M79.0964 339.767L81.0799 329.888L102.74 329.872M79.0964 339.767L102.74 329.872M102.74 329.872L121.465 329.973M121.465 329.973L166.487 330.168M121.465 329.973L136.633 339.236M166.487 330.168L187.156 330.084M166.487 330.168L136.633 339.236M187.156 330.084L187.289 330.199L196.141 337.858M187.156 330.084L234.362 329.943M234.362 329.943L240.7 329.946M234.362 329.943L196.141 337.858M234.362 329.943L285.89 329.959M240.7 329.946L285.89 329.959M240.7 329.946L250.598 344.144M285.89 329.959L282.022 340.332M285.89 329.959L288.697 322.428M576.178 474.068L566.561 495.519M547.61 59.0836L580.634 51.608M547.61 59.0836L520.68 45.2697M547.61 59.0836L512.394 70.3702M512.394 70.3702L489.922 58.5918M512.394 70.3702L476.801 82.7297M476.801 82.7297L458.739 73.0464M476.801 82.7297L442.609 103.366M442.609 103.366L428.702 95.6981M442.609 103.366L411.739 131.203M411.739 131.203L401.522 125.388M411.739 131.203L385.936 164.714M385.936 164.714L378.76 160.492M385.936 164.714L375.891 184.124M383.487 182.665L375.891 184.124M389.523 374.802L386.435 370.719M389.523 374.802L395.518 379.292M386.435 370.719L386.115 370.296M386.435 370.719L411.738 376.226M386.115 370.296L374.253 354.618M386.115 370.296L399.127 357.698M374.253 354.618L399.127 357.698M411.611 391.346L403.647 385.381M411.611 391.346L440.872 402.154M440.872 402.154L427.688 393.339M440.872 402.154L473.046 404.832M473.046 404.832L456 393.557M473.046 404.832L506.559 399.423M506.559 399.423L485.391 385.646M506.559 399.423L539.685 393.122M539.685 393.122L514.355 376.9M539.685 393.122L570.872 384.411M580.634 51.608L549.441 35.8897M549.441 35.8897L574.887 28.2958M549.441 35.8897L512.402 22.6109M549.441 35.8897L520.68 45.2697M520.68 45.2697L488.515 33.5673M520.68 45.2697L489.922 58.5918M489.922 58.5918L462.912 48.5852M489.922 58.5918L458.739 73.0464M458.739 73.0464L436.885 64.7955M458.739 73.0464L428.702 95.6981M428.702 95.6981L411.772 89.1465M428.702 95.6981L401.522 125.388M401.522 125.388L389.009 120.406M401.522 125.388L378.76 160.492M378.76 160.492L369.93 156.867M378.76 160.492L367.621 185.678M375.891 184.124L368.04 185.631M403.647 385.381L399.102 381.976M403.647 385.381L427.688 393.339M399.102 381.976L398.409 381.458M399.102 381.976L411.624 385.801M398.409 381.458L395.518 379.292M398.409 381.458L411.624 385.801M395.518 379.292L411.738 376.226M427.688 393.339L456 393.557M427.688 393.339L411.624 385.801M456 393.557L435.356 383.944M456 393.557L485.391 385.646M485.391 385.646L459.911 373.93M485.391 385.646L514.355 376.9M514.355 376.9L484.047 363.145M514.355 376.9L541.539 365.941M570.872 384.411L541.539 365.941M541.539 365.941L506.637 350.318M541.539 365.941L565.619 356.489M574.887 28.2958L533.488 13.6374M533.488 13.6374L512.402 22.6109M512.402 22.6109L470.609 12.0306M512.402 22.6109L488.515 33.5673M488.515 33.5673L452.071 24.2237M488.515 33.5673L462.912 48.5852M462.912 48.5852L432.171 40.5756M462.912 48.5852L436.885 64.7955M436.885 64.7955L411.902 58.1736M436.885 64.7955L411.772 89.1465M411.772 89.1465L392.328 83.8762M411.772 89.1465L389.009 120.406M389.009 120.406L374.58 116.392M389.009 120.406L369.93 156.867M369.93 156.867L359.712 153.939M369.93 156.867L359.2 186.609M367.621 185.678L359.2 186.609M367.621 185.678L368.04 185.631M435.356 383.944L434.958 383.976L411.624 385.801M435.356 383.944L411.738 376.226M435.356 383.944L459.911 373.93M459.911 373.93L430.886 364.546M459.911 373.93L484.047 363.145M484.047 363.145L449.664 352.151M484.047 363.145L506.637 350.318M506.637 350.318L467.198 337.858M506.637 350.318L526.604 339.236M565.619 356.489L526.604 339.236M470.609 12.0306L452.071 24.2237M452.071 24.2237L412.347 17.4215M452.071 24.2237L432.171 40.5756M432.171 40.5756L398.558 34.7338M432.171 40.5756L411.902 58.1736M411.902 58.1736L384.494 53.3367M411.902 58.1736L392.328 83.8762M392.328 83.8762L370.933 80.0195M392.328 83.8762L374.58 116.392M374.58 116.392L358.66 113.447M374.58 116.392L359.712 153.939M359.712 153.939L348.41 151.79M359.712 153.939L350.474 187.574M359.2 186.609L350.474 187.574M411.738 376.226L430.886 364.546M430.886 364.546L399.127 357.698M430.886 364.546L449.664 352.151M449.664 352.151L412.156 344.144M449.664 352.151L467.198 337.858M412.347 17.4215L370.365 13.2896M412.347 17.4215L398.558 34.7338M398.558 34.7338L362.963 31.1816M398.558 34.7338L384.494 53.3367M384.494 53.3367L355.413 50.3912M384.494 53.3367L370.933 80.0195M370.933 80.0195L348.184 77.6678M370.933 80.0195L358.824 112.999L358.66 113.447M358.66 113.447L341.7 111.649M358.66 113.447L348.41 151.79M348.41 151.79L347.986 151.745L336.353 150.477M348.41 151.79L341.622 188.427M350.474 187.574L343.328 188.365M399.127 357.698L412.156 344.144M412.156 344.144L372.496 339.278M370.365 13.2896L327.165 11.9041M370.365 13.2896L362.963 31.1816M362.963 31.1816L326.298 29.9893M362.963 31.1816L355.413 50.3912M355.413 50.3912L325.426 49.4016M355.413 50.3912L348.184 77.6678M348.184 77.6678L324.705 76.8773M348.184 77.6678L341.7 111.649M341.7 111.649L324.181 111.045M341.7 111.649L336.353 150.477M336.353 150.477L335.582 150.449L323.887 150.036M336.353 150.477L332.764 188.748M341.622 188.427L332.764 188.748M341.622 188.427L343.328 188.365M327.165 11.9041L283.793 13.2896M327.165 11.9041L326.298 29.9893M326.298 29.9893L289.486 31.1816M326.298 29.9893L325.426 49.4016M325.426 49.4016L295.317 50.3912M325.426 49.4016L324.705 76.8773M324.705 76.8773L301.129 77.6678M324.705 76.8773L324.181 111.045M324.181 111.045L306.588 111.649M324.181 111.045L323.887 150.036M323.887 150.036L323.066 150.064L311.371 150.477M323.887 150.036L323.848 189.071M332.764 188.748L323.848 189.071M283.793 13.2896L241.299 17.4215M283.793 13.2896L289.486 31.1816M289.486 31.1816L253.452 34.7338M289.486 31.1816L295.317 50.3912M295.317 50.3912L265.872 53.3367M295.317 50.3912L301.129 77.6678M301.129 77.6678L278.095 80.0195M301.129 77.6678L306.588 111.649M306.588 111.649L289.414 113.447M306.588 111.649L311.371 150.477M311.371 150.477L299.16 151.79M311.371 150.477L314.935 189.181M323.848 189.071L317.863 189.288M241.299 17.4215L200.731 24.2237M241.299 17.4215L253.452 34.7338M253.452 34.7338L219.116 40.5756M253.452 34.7338L265.872 53.3367M265.872 53.3367L237.869 58.1736M265.872 53.3367L278.095 80.0195M278.095 80.0195L256.23 83.8762M278.095 80.0195L289.414 113.447M289.414 113.447L273.142 116.392M289.414 113.447L299.16 151.79M299.16 151.79L287.608 153.939M299.16 151.79L306.009 188.857M314.935 189.181L306.009 188.857M314.935 189.181L317.863 189.288M200.731 24.2237L183.691 12.0306M200.731 24.2237L163.129 33.5673M200.731 24.2237L219.116 40.5756M219.116 40.5756L187.384 48.5852M219.116 40.5756L237.869 58.1736M237.869 58.1736L212.07 64.7955M237.869 58.1736L256.23 83.8762M256.23 83.8762L236.144 89.1465M256.23 83.8762L273.142 116.392M273.142 116.392L258.233 120.406M273.142 116.392L287.608 153.939M287.608 153.939L277.048 156.867M287.608 153.939L297.156 188.535M306.009 188.857L297.156 188.535M262.002 357.698L268.856 365.298M262.002 357.698L275.418 356.056M262.002 357.698L250.598 344.144M262.002 357.698L229.598 364.546M275.418 356.056L268.856 365.298M275.418 356.056L276.979 353.858M250.598 344.144L282.022 340.332M250.598 344.144L212.337 352.151M282.022 340.332L276.979 353.858M212.337 352.151L229.598 364.546M212.337 352.151L176.921 363.145M212.337 352.151L196.141 337.858M183.691 12.0306L140.587 22.6109M140.587 22.6109L120.71 13.6374M140.587 22.6109L101.901 35.8897M140.587 22.6109L163.129 33.5673M163.129 33.5673L129.512 45.2697M163.129 33.5673L187.384 48.5852M187.384 48.5852L159.137 58.5918M187.384 48.5852L212.07 64.7955M212.07 64.7955L189.201 73.0464M212.07 64.7955L236.144 89.1465M236.144 89.1465L218.416 95.6981M236.144 89.1465L258.233 120.406M258.233 120.406L245.126 125.388M258.233 120.406L277.048 156.867M277.048 156.867L267.794 160.492M277.048 156.867L288.371 187.901M297.156 188.535L292.51 188.365M247.171 376.226L258.219 378.532M247.171 376.226L263.58 372.726M247.171 376.226L229.598 364.546M247.171 376.226L222.824 383.944M263.58 372.726L261.059 376.276M263.58 372.726L268.856 365.298M229.598 364.546L199.688 373.93M199.688 373.93L222.824 383.944M199.688 373.93L173.106 385.646M199.688 373.93L176.921 363.145M176.921 363.145L145.32 376.9M176.921 363.145L155.532 350.318M196.141 337.858L155.532 350.318M155.532 350.318L119.162 365.941M155.532 350.318L136.633 339.236M120.71 13.6374L77.4932 28.2958M77.4932 28.2958L101.901 35.8897M101.901 35.8897L68.7588 51.608M101.901 35.8897L129.512 45.2697M129.512 45.2697L100.869 59.0836M129.512 45.2697L159.137 58.5918M159.137 58.5918L135.21 70.3702M159.137 58.5918L189.201 73.0464M189.201 73.0464L169.946 82.7297M189.201 73.0464L218.416 95.6981M218.416 95.6981L203.577 103.366M218.416 95.6981L245.126 125.388M245.126 125.388L234.212 131.203M245.126 125.388L267.794 160.492M267.794 160.492L260.125 164.714M267.794 160.492L279.686 186.928M288.371 187.901L279.686 186.928M288.371 187.901L292.51 188.365M244.955 385.801L252.01 383.463M244.955 385.801L222.824 383.944M244.955 385.801L228.173 393.339M222.824 383.944L201.272 393.557M258.219 378.532L252.01 383.463M258.219 378.532L261.059 376.276M201.272 393.557L228.173 393.339M201.272 393.557L183.162 404.832M201.272 393.557L173.106 385.646M173.106 385.646L150.641 399.423M173.106 385.646L145.32 376.9M145.32 376.9L118.467 393.122M145.32 376.9L119.162 365.941M119.162 365.941L88.0941 384.411M119.162 365.941L95.9977 356.489M136.633 339.236L95.9977 356.489M68.7588 51.608L100.869 59.0836M100.869 59.0836L78.1275 74.7012M100.869 59.0836L135.21 70.3702M135.21 70.3702L116.374 83.6408M135.21 70.3702L169.946 82.7297M169.946 82.7297L154.922 93.604M169.946 82.7297L203.577 103.366M203.577 103.366L192.098 111.947M203.577 103.366L234.212 131.203M234.212 131.203L225.84 137.693M234.212 131.203L260.125 164.714M260.125 164.714L254.281 169.414M260.125 164.714L271.394 185.998M279.686 186.928L271.394 185.998M228.173 393.339L214.148 402.154M228.173 393.339L248.645 386.134M252.01 383.463L251.819 383.614L248.645 386.134M183.162 404.832L214.148 402.154M183.162 404.832L169.073 417.48M183.162 404.832L150.641 399.423M150.641 399.423L133.018 414.931M150.641 399.423L118.467 393.122M118.467 393.122L97.2275 411.437M118.467 393.122L88.0941 384.411M78.1275 74.7012L62.132 91.743M78.1275 74.7012L116.374 83.6408M116.374 83.6408L103.315 98.0697M116.374 83.6408L154.922 93.604M154.922 93.604L144.662 105.382M154.922 93.604L192.098 111.947M192.098 111.947L184.377 121.209M192.098 111.947L225.84 137.693M225.84 137.693L220.287 144.673M225.84 137.693L254.281 169.414M254.281 169.414L250.455 174.456M254.281 169.414L263.491 184.719M271.394 185.998L268.13 185.631M242.081 391.346L234.121 398.663M242.081 391.346L248.645 386.134M242.081 391.346L214.148 402.154M214.148 402.154L203.325 412.017M203.325 412.017L234.121 398.663M203.325 412.017L196.077 422.654M203.325 412.017L169.073 417.48M169.073 417.48L159.502 431.169M169.073 417.48L133.018 414.931M133.018 414.931L120.871 431.771M133.018 414.931L97.2275 411.437M97.2275 411.437L82.3882 431.396M62.132 91.743L53.5977 109.766M62.132 91.743L103.315 98.0697M103.315 98.0697L96.5967 113.268M103.315 98.0697L144.662 105.382M144.662 105.382L139.59 117.738M144.662 105.382L184.377 121.209M184.377 121.209L180.718 130.888M184.377 121.209L220.287 144.673M220.287 144.673L217.763 151.944M220.287 144.673L250.455 174.456M250.455 174.456L248.78 179.692M250.455 174.456L256.333 183.311M263.491 184.719L256.333 183.311M263.491 184.719L268.13 185.631M259.901 377.908L253.695 382.904L253.465 383.089L234.121 398.663M259.901 377.908L257.409 381.672L257.276 381.874L256.232 383.452M259.901 377.908L261.059 376.276M234.121 398.663L228.859 406.53M228.859 406.53L226.49 414.721M228.859 406.53L256.232 383.452M228.859 406.53L196.077 422.654M196.077 422.654L192.684 433.762M196.077 422.654L159.502 431.169M159.502 431.169L154.84 445.516M159.502 431.169L120.871 431.771M120.871 431.771L114.722 449.489M120.871 431.771L82.3882 431.396M82.3882 431.396L74.604 452.474M53.5977 109.766L53.0747 128.26M53.5977 109.766L96.5967 113.268M96.5967 113.268L96.6295 128.798M96.5967 113.268L139.59 117.738M139.59 117.738L139.996 130.313M139.59 117.738L180.718 130.888M180.718 130.888L181.312 140.699M180.718 130.888L217.763 151.944M217.763 151.944L218.388 159.287M217.763 151.944L248.78 179.692M248.78 179.692L249.007 181.871M248.78 179.692L250.548 182.174M256.333 183.311L250.548 182.174M276.773 354.412L275.714 358.344M276.773 354.412L276.979 353.858M276.773 354.412L256.232 383.452M256.232 383.452L254.638 389.208M254.638 389.208L259.955 381.422L260.306 380.909L275.714 358.344M254.638 389.208L255.188 395.004M254.638 389.208L226.49 414.721M226.49 414.721L227.129 422.991M226.49 414.721L192.684 433.762M192.684 433.762L193.324 445.014M192.684 433.762L154.84 445.516M154.84 445.516L155.349 460.102M154.84 445.516L114.722 449.489M114.722 449.489L114.94 467.572M114.722 449.489L74.604 452.474M74.604 452.474L74.37 474.068M53.0747 128.26L60.8939 146.659M53.0747 128.26L96.6295 128.798M96.6295 128.798L103.632 144.185M96.6295 128.798L139.996 130.313M139.996 130.313L146.011 142.72M139.996 130.313L181.312 140.699M181.312 140.699L186.229 150.342M181.312 140.699L218.388 159.287M218.388 159.287L222.19 166.479M218.388 159.287L244.351 180.834M249.007 181.871L245.544 181.19M249.007 181.871L250.548 182.174M288.581 323.53L288.918 326.343M288.581 323.53L288.697 322.428M288.581 323.53L277.668 353.058L275.714 358.344M275.714 358.344L276.145 362.297M288.697 322.428L292.437 286.606M276.145 362.297L278.067 366.148M276.145 362.297L288.918 326.343M276.145 362.297L255.188 395.004M255.188 395.004L257.888 400.662M255.188 395.004L227.129 422.991M227.129 422.991L230.798 431.085M227.129 422.991L193.324 445.014M193.324 445.014L193.446 445.299L198.056 456.064M193.324 445.014L155.349 460.102M155.349 460.102L161.143 474.478M155.349 460.102L114.94 467.572M114.94 467.572L121.713 485.464M114.94 467.572L74.37 474.068M74.37 474.068L81.9716 495.519M60.8939 146.659L77.1199 164.357M60.8939 146.659L103.632 144.185M103.632 144.185L117.605 158.924M103.632 144.185L146.011 142.72M146.011 142.72L157.59 154.558M146.011 142.72L186.229 150.342M186.229 150.342L195.399 159.506M186.229 150.342L222.19 166.479M222.19 166.479L229.099 173.291M222.19 166.479L237.654 178.693M244.351 180.834L238.078 178.96M244.351 180.834L245.544 181.19M287.309 251.498L288.743 254.144M287.309 251.498L292.437 286.606M292.437 286.606L292.673 288.23L292.759 288.809M292.759 288.809L294.005 291.151M292.759 288.809L288.918 326.343M294.005 291.151L296.164 293.354M294.005 291.151L288.743 254.144M294.005 291.151L290.335 329.08M288.918 326.343L290.335 329.08M290.335 329.08L292.795 331.657M290.335 329.08L278.067 366.148M278.067 366.148L281.429 369.776M278.067 366.148L257.888 400.662M257.888 400.662L262.675 406.005M257.888 400.662L230.798 431.085M230.798 431.085L237.423 438.749M230.798 431.085L198.056 456.064M198.056 456.064L206.806 466.56M198.056 456.064L161.143 474.478M161.143 474.478L172.167 488.182M161.143 474.478L121.713 485.464M121.713 485.464L135.023 502.583M121.713 485.464L81.9716 495.519M81.9716 495.519L97.4463 516.121M77.1199 164.357L38.3687 172.932M77.1199 164.357L101.512 180.728M77.1199 164.357L117.605 158.924M117.605 158.924L138.292 172.506M117.605 158.924L157.59 154.558M157.59 154.558L174.488 165.424M157.59 154.558L195.399 159.506M195.399 159.506L208.608 167.889M195.399 159.506L229.099 173.291M229.099 173.291L237.654 178.693M237.654 178.693L238.078 178.96M288.743 254.144L291.233 256.636M296.164 293.354L299.171 295.349M296.164 293.354L291.233 256.636M296.164 293.354L292.795 331.657M292.795 331.657L296.227 333.992M292.795 331.657L281.429 369.776M281.429 369.776L286.135 373.07M281.429 369.776L262.675 406.005M262.675 406.005L269.418 410.863M262.675 406.005L237.423 438.749M237.423 438.749L246.837 445.734M237.423 438.749L206.806 466.56M206.806 466.56L219.367 476.154M206.806 466.56L172.167 488.182M172.167 488.182L188.18 500.751M172.167 488.182L135.023 502.583M135.023 502.583L154.614 518.338M135.023 502.583L97.4463 516.121M97.4463 516.121L120.54 535.152M97.4463 516.121L61.197 526.163M38.3687 172.932L66.1844 192.048M66.1844 192.048L34.0788 203.135M66.1844 192.048L102.965 208.951M66.1844 192.048L101.512 180.728M101.512 180.728L133.49 195.154M101.512 180.728L138.292 172.506M138.292 172.506L165.175 184.436M138.292 172.506L174.488 165.424M174.488 165.424L196.259 174.935M174.488 165.424L208.608 167.889M208.608 167.889L225.491 175.203M208.608 167.889L235.325 178.121L235.55 178.206M238.078 178.96L237.941 178.921L235.55 178.206M291.233 256.636L294.71 258.894M299.171 295.349L302.938 297.077M299.171 295.349L294.71 258.894M299.171 295.349L296.227 333.992M296.227 333.992L300.529 336.014M296.227 333.992L286.135 373.07M286.135 373.07L292.048 375.923M286.135 373.07L269.418 410.863M269.418 410.863L277.922 415.08M269.418 410.863L246.837 445.734M246.837 445.734L258.768 451.809M246.837 445.734L219.367 476.154M219.367 476.154L235.39 484.521M219.367 476.154L188.18 500.751M188.18 500.751L208.755 511.742M188.18 500.751L154.614 518.338M154.614 518.338L179.986 532.163M154.614 518.338L120.54 535.152M120.54 535.152L150.693 551.902M120.54 535.152L87.9478 548.209L87.5546 548.366M61.197 526.163L87.5546 548.366M87.5546 548.366L122.244 567.971M87.5546 548.366L57.5764 560.665M34.0788 203.135L75.1447 222.334M75.1447 222.334L102.965 208.951M102.965 208.951L147.663 222.944M102.965 208.951L133.49 195.154M133.49 195.154L172.125 207.065M133.49 195.154L165.175 184.436M165.175 184.436L197.462 194.254M165.175 184.436L196.259 174.935M196.259 174.935L222.256 182.741M196.259 174.935L225.491 175.203M225.491 175.203L235.55 178.206M294.71 258.894L299.067 260.849M302.938 297.077L307.351 298.481M302.938 297.077L299.067 260.849M302.938 297.077L300.529 336.014M300.529 336.014L305.57 337.657M300.529 336.014L292.048 375.923M292.048 375.923L298.989 378.244M292.048 375.923L277.922 415.08M277.922 415.08L287.929 418.513M277.922 415.08L258.768 451.809M258.768 451.809L272.86 456.767M258.768 451.809L235.39 484.521M235.39 484.521L254.394 491.365M235.39 484.521L208.755 511.742M208.755 511.742L233.279 520.757M208.755 511.742L179.986 532.163M179.986 532.163L210.392 543.53M179.986 532.163L150.693 551.902M150.693 551.902L187.025 565.715M150.693 551.902L122.244 567.971M122.244 567.971L164.267 584.178M122.244 567.971L96.3171 582.906M57.5764 560.665L96.3171 582.906M147.663 222.944L172.125 207.065M172.125 207.065L216.162 215.962M172.125 207.065L197.462 194.254M197.462 194.254L234.113 201.571M197.462 194.254L222.256 182.741M222.256 182.741L251.65 188.545M222.256 182.741L245.544 181.19M268.13 185.631L251.65 188.545M292.51 188.365L283.451 192.122M317.863 189.288L316.564 193.331M343.328 188.365L349.825 192.122M368.04 185.631L382.067 188.545M391.168 181.19L395.329 179.991M391.168 181.19L396.234 181.564L396.309 181.57L412.175 182.741M395.329 179.991L395.477 179.949M395.477 179.949L402.573 177.904M402.573 177.904L405.306 177.117M405.306 177.117L410.069 174.321M405.306 177.117L411.394 175.364M411.394 175.364L411.948 175.203M411.394 175.364L429.723 167.889M411.948 175.203L439.135 174.935M411.948 175.203L429.723 167.889M299.067 260.849L304.175 262.439M307.351 298.481L312.273 299.516M307.351 298.481L304.175 262.439M307.351 298.481L305.57 337.657M305.57 337.657L311.195 338.87M305.57 337.657L298.989 378.244M298.989 378.244L306.743 379.958M298.989 378.244L287.929 418.513M287.929 418.513L299.128 421.054M287.929 418.513L272.86 456.767M272.86 456.767L288.668 460.439M272.86 456.767L254.394 491.365M254.394 491.365L275.778 496.441M254.394 491.365L233.279 520.757M233.279 520.757L260.97 527.457M233.279 520.757L210.392 543.53M210.392 543.53L210.756 543.621L244.85 551.998M210.392 543.53L187.025 565.715M187.025 565.715L228.357 576.025M187.025 565.715L164.267 584.178M216.162 215.962L264.057 221.463M216.162 215.962L234.113 201.571M234.113 201.571L273.871 206.088M234.113 201.571L251.65 188.545M251.65 188.545L283.451 192.122M304.175 262.439L309.875 263.612M312.273 299.516L317.553 300.151M312.273 299.516L309.875 263.612M312.273 299.516L311.195 338.87M311.195 338.87L317.231 339.614M311.195 338.87L306.743 379.958M306.743 379.958L315.067 381.011M306.743 379.958L299.128 421.054M299.128 421.054L311.166 422.613M299.128 421.054L288.668 460.439M288.668 460.439L305.687 462.695M288.668 460.439L275.778 496.441M275.778 496.441L298.844 499.565M275.778 496.441L260.97 527.457M260.97 527.457L290.904 531.584M260.97 527.457L244.85 551.998M244.85 551.998L282.188 557.221M244.85 551.998L228.357 576.025M228.357 576.025L273.253 582.393M264.057 221.463L314.056 223.324M264.057 221.463L273.871 206.088M273.871 206.088L315.319 207.614M273.871 206.088L283.451 192.122M283.451 192.122L316.564 193.331M304.023 232.817L312.568 233.802M304.023 232.817L309.875 263.612M309.875 263.612L315.991 264.331M315.991 264.331L322.332 264.573M315.991 264.331L312.568 233.802M315.991 264.331L317.553 300.151M317.553 300.151L323.026 300.365M317.553 300.151L317.231 339.614M317.231 339.614L323.488 339.864M317.231 339.614L315.067 381.011M315.067 381.011L323.7 381.365M315.067 381.011L311.166 422.613M311.166 422.613L323.658 423.138M311.166 422.613L305.687 462.695M305.687 462.695L323.361 463.456M305.687 462.695L298.844 499.565M298.844 499.565L322.82 500.619M298.844 499.565L290.904 531.584M290.904 531.584L322.054 532.978M290.904 531.584L282.188 557.221M282.188 557.221L321.088 558.986M282.188 557.221L273.253 582.393M273.253 582.393L320.085 584.548M314.056 223.324L364.287 221.463M314.056 223.324L315.319 207.614M315.319 207.614L356.956 206.088M315.319 207.614L316.564 193.331M316.564 193.331L349.825 192.122M312.568 233.802L321.43 234.134M322.332 264.573L328.7 264.331M322.332 264.573L321.43 234.134M322.332 264.573L323.026 300.365M323.026 300.365L328.522 300.151M323.026 300.365L323.488 339.864M323.488 339.864L329.771 339.614M323.488 339.864L323.7 381.365M323.7 381.365L332.369 381.011M323.7 381.365L323.658 423.138M323.658 423.138L336.201 422.613M323.658 423.138L323.361 463.456M323.361 463.456L341.108 462.695M323.361 463.456L322.82 500.619M322.82 500.619L346.897 499.565M322.82 500.619L322.054 532.978M322.054 532.978L353.334 531.584M322.054 532.978L321.088 558.986M321.088 558.986L360.155 557.221M321.088 558.986L320.085 584.548M320.085 584.548L367.119 582.393M364.287 221.463L412.865 215.962M364.287 221.463L356.956 206.088M356.956 206.088L397.272 201.571M356.956 206.088L349.825 192.122M349.825 192.122L382.067 188.545M321.43 234.134L330.33 233.802M328.7 264.331L334.895 263.612M328.7 264.331L330.33 233.802M328.7 264.331L328.522 300.151M328.522 300.151L333.87 299.516M328.522 300.151L329.771 339.614M329.771 339.614L335.883 338.87M329.771 339.614L332.369 381.011M332.369 381.011L340.8 379.958M332.369 381.011L336.201 422.613M336.201 422.613L348.393 421.054M336.201 422.613L341.108 462.695M341.108 462.695L358.345 460.439M341.108 462.695L346.897 499.565M346.897 499.565L370.26 496.441M346.897 499.565L353.334 531.584M353.334 531.584L383.658 527.457M353.334 531.584L360.155 557.221M360.155 557.221L397.986 551.998M360.155 557.221L367.119 582.393M367.119 582.393L412.613 576.025M412.865 215.962L458.004 207.065M412.865 215.962L397.272 201.571M397.272 201.571L434.827 194.254M397.272 201.571L387.561 193.252L387.491 193.192L382.067 188.545M382.067 188.545L412.175 182.741M330.33 233.802L338.986 232.817M334.895 263.612L340.725 262.439M334.895 263.612L338.986 232.817M334.895 263.612L333.87 299.516M333.87 299.516L338.903 298.481M333.87 299.516L335.883 338.87M335.883 338.87L341.635 337.657M335.883 338.87L340.8 379.958M340.8 379.958L348.726 378.244M340.8 379.958L348.393 421.054M348.393 421.054L359.843 418.513M348.393 421.054L358.345 460.439M358.345 460.439L374.509 456.767M358.345 460.439L370.26 496.441M370.26 496.441L392.128 491.365M370.26 496.441L383.658 527.457M383.658 527.457L411.981 520.757M383.658 527.457L397.986 551.998M397.986 551.998L433.241 543.53M397.986 551.998L412.613 576.025M412.613 576.025L454.915 565.715M458.004 207.065L480.482 222.944M458.004 207.065L498.117 195.154M458.004 207.065L434.827 194.254M434.827 194.254L468.328 184.436M434.827 194.254L412.175 182.741M412.175 182.741L439.135 174.935M340.725 262.439L346.009 260.849M340.725 262.439L338.903 298.481M338.903 298.481L343.466 297.077M338.903 298.481L341.635 337.657M341.635 337.657L346.845 336.014M341.635 337.657L348.726 378.244M348.726 378.244L355.902 375.923M348.726 378.244L359.843 418.513M359.843 418.513L370.189 415.08M359.843 418.513L374.509 456.767M374.509 456.767L389.079 451.809M374.509 456.767L392.128 491.365M392.128 491.365L411.783 484.521M392.128 491.365L411.981 520.757M411.981 520.757L437.357 511.742M411.981 520.757L433.241 543.53M433.241 543.53L464.716 532.163M433.241 543.53L454.915 565.715M454.915 565.715L492.544 551.902M454.915 565.715L475.933 584.178M480.482 222.944L526.915 208.951M526.915 208.951L553.187 222.334M526.915 208.951L565.793 192.048M526.915 208.951L498.117 195.154M498.117 195.154L531.884 180.728M498.117 195.154L468.328 184.436M468.328 184.436L496.685 172.506M468.328 184.436L439.135 174.935M439.135 174.935L462.076 165.424M343.466 297.077L347.418 295.349M343.466 297.077L346.009 260.849M343.466 297.077L346.845 336.014M346.845 336.014L351.357 333.992M346.845 336.014L355.902 375.923M355.902 375.923L362.103 373.07M355.902 375.923L370.189 415.08M370.189 415.08L379.108 410.863M370.189 415.08L389.079 451.809M389.079 451.809L401.598 445.734M389.079 451.809L411.783 484.521M411.783 484.521L428.604 476.154M411.783 484.521L437.357 511.742M437.357 511.742L458.971 500.751M437.357 511.742L464.716 532.163M464.716 532.163L491.39 518.338M464.716 532.163L492.544 551.902M492.544 551.902L524.27 535.152M492.544 551.902L519.478 567.971M475.933 584.178L519.478 567.971M519.478 567.971L556.008 548.366M519.478 567.971L544.034 582.906M553.187 222.334L596.632 203.135M596.632 203.135L565.793 192.048M565.793 192.048L595.978 172.932M565.793 192.048L531.884 180.728M531.884 180.728L558.306 164.357M531.884 180.728L496.685 172.506M496.685 172.506L519.052 158.924M496.685 172.506L462.076 165.424M462.076 165.424L480.313 154.558M462.076 165.424L429.723 167.889M429.723 167.889L443.951 159.506M346.009 260.849L350.582 258.894M347.418 295.349L350.639 293.354M347.418 295.349L350.582 258.894M347.418 295.349L351.357 333.992M351.357 333.992L355.031 331.657M351.357 333.992L362.103 373.07M362.103 373.07L367.143 369.776M362.103 373.07L379.108 410.863M379.108 410.863L386.329 406.005M379.108 410.863L401.598 445.734M401.598 445.734L411.686 438.749M401.598 445.734L428.604 476.154M428.604 476.154L442.078 466.56M428.604 476.154L458.971 500.751M458.971 500.751L476.17 488.182M458.971 500.751L491.39 518.338M491.39 518.338L512.465 502.583M491.39 518.338L524.27 535.152M524.27 535.152L549.152 516.121M524.27 535.152L556.008 548.366M556.008 548.366L584.451 526.163M556.008 548.366L584.863 560.665M544.034 582.906L584.863 560.665M595.978 172.932L558.306 164.357M558.306 164.357L576.727 146.659M558.306 164.357L519.052 158.924M519.052 158.924L534.846 144.185M519.052 158.924L480.313 154.558M480.313 154.558L493.349 142.721M480.313 154.558L443.951 159.506M443.951 159.506L454.237 150.342M443.951 159.506L411.822 173.291M350.582 258.894L354.307 256.636M350.639 293.354L353.034 291.151M350.639 293.354L354.307 256.636M350.639 293.354L355.031 331.657M355.031 331.657L357.759 329.08M355.031 331.657L367.143 369.776M367.143 369.776L370.871 366.148M367.143 369.776L386.329 406.005M386.329 406.005L391.643 400.662M386.329 406.005L411.686 438.749M411.686 438.749L419.054 431.085M411.686 438.749L442.078 466.56M442.078 466.56L451.829 456.064M442.078 466.56L476.17 488.182M476.17 488.182L488.488 474.478M476.17 488.182L512.465 502.583M512.465 502.583L527.386 485.464M512.465 502.583L549.152 516.121M549.152 516.121L566.561 495.519M549.152 516.121L584.451 526.163M576.727 146.659L534.846 144.185M534.846 144.185L493.349 142.721M493.349 142.721L454.237 150.342M454.237 150.342L419.544 166.479M411.822 173.291L410.069 174.321M411.822 173.291L419.544 166.479M410.069 174.321L410.527 173.942L419.544 166.479M354.307 256.636L357.072 254.144M353.034 291.151L354.53 288.809M353.034 291.151L357.072 254.144M353.034 291.151L357.759 329.08M357.759 329.08L370.871 366.148M370.871 366.148L391.643 400.662M391.643 400.662L419.054 431.085M419.054 431.085L451.829 456.064M451.829 456.064L488.488 474.478M488.488 474.478L527.386 485.464M527.386 485.464L566.561 495.519M357.072 254.144L358.798 251.498M354.53 288.809L358.798 251.498" stroke="black" stroke-width="3" stroke-linecap="round" stroke-linejoin="round"/>
</svg>
