<svg width="614" height="600" viewBox="0 0 614 600" fill="none" xmlns="http://www.w3.org/2000/svg">
<path d="M478.177 478.41L480.497 474.762Z" fill="white"/>
<path d="M478.177 478.408L504.28 486.671Z" fill="white"/>
<path d="M504.281 486.673L531.599 441.691Z" fill="white"/>
<path d="M531.598 441.69L520.337 437.971Z" fill="white"/>
<path d="M553.62 446.002L531.599 441.689L533.929 422.988" fill="white"/>
<path d="M463.968 511.042L440.521 503.838Z" fill="white"/>
<path d="M463.968 511.042L504.28 486.671L527.431 490.846" fill="white"/>
<path d="M527.431 490.848L553.62 446.003Z" fill="white"/>
<path d="M572.457 446.424L553.621 446.004L557.462 392.576" fill="white"/>
<path d="M557.461 392.574L555.776 392.215Z" fill="white"/>
<path d="M573.941 393.282L557.461 392.575L556.687 390.705" fill="white"/>
<path d="M431.25 510.077L441.495 511.811L486.267 514.849L505.437 514.769L521.196 510.883L563.485 487.052L575.897 479.332L584.372 468.009L607.526 425.411L611.664 411.665L612 395.011L608.7 349.78L605.735 333.121L599.597 314.463L595.35 305.04" fill="white"/>
<path d="M547.26 490.945L527.43 490.847L486.267 514.849L463.967 511.042L432.642 509.139" fill="white"/>
<path d="M547.261 490.944L572.456 446.421Z" fill="white"/>
<path d="M587.839 443.023L572.457 446.424L573.941 393.283" fill="white"/>
<path d="M587.421 390.652L573.941 393.281L565.399 375.521" fill="white"/>
<path d="M505.437 514.767L547.261 490.944L563.486 487.05L587.839 443.021" fill="white"/>
<path d="M599.568 435.952L587.839 443.023L587.421 390.654" fill="white"/>
<path d="M597.721 384.799L587.421 390.652L572.187 362.592" fill="white"/>
<path d="M575.898 479.333L599.568 435.952Z" fill="white"/>
<path d="M604.726 375.889L607.526 425.411L599.567 435.951L597.72 384.8" fill="white"/>
<path d="M604.727 375.888L597.721 384.799L577.871 351.768" fill="white"/>
<path d="M608.383 364.131L604.726 375.889L582.594 342.165" fill="white"/>
<path d="M611.664 411.665L608.383 364.129Z" fill="white"/>
<path d="M589.885 325.128L608.7 349.78L608.383 364.131L586.428 333.206" fill="white"/>
<path d="M605.735 333.121L592.523 316.952Z" fill="white"/>
<path d="M599.597 314.464L594.498 308.628Z" fill="white"/>
<path d="M436.921 112.846L440.835 120.168Z" fill="white"/>
<path d="M446.347 121.104L436.92 112.848L412.209 92.9832L387.41 74.8041L362.888 58.5908L339.015 44.6061L316.159 33.085L294.685 24.2436L274.952 18.2576L257.302 15.2716L212.878 15L195.225 15.1341L180.606 18.867L139.961 44.6809L127.896 52.5473L119.598 64.1485L98.6165 108.159L94.3666 122.981L94.1093 140.391L94.1006 141.045L100.239 186.475L103.588 205.052L110.479 225.883L115.141 236.105L119.409 245.464L119.944 246.636L120.843 248.608L134.535 272.826L151.331 298.082L168.538 320.736L170.938 323.896L171.12 324.11L192.992 349.764L204.403 361.804L205.317 362.772L213.447 371.349" fill="white"/>
<path d="M412.209 92.9832L420.725 104.024Z" fill="white"/>
<path d="M420.726 104.025L440.812 120.167Z" fill="white"/>
<path d="M400.55 89.2426L420.725 104.024L416.87 117.797" fill="white"/>
<path d="M387.411 74.8036L400.552 89.2427Z" fill="white"/>
<path d="M380.634 76.0891L400.552 89.2427L397.467 117.911" fill="white"/>
<path d="M362.889 58.5893L380.634 76.0877Z" fill="white"/>
<path d="M361.28 64.7752L380.634 76.0908L381.745 112.332" fill="white"/>
<path d="M381.745 112.329L390.887 118.324Z" fill="white"/>
<path d="M366.951 103.767L381.745 112.329L379.316 119.129" fill="white"/>
<path d="M339.015 44.6061L361.28 64.7734Z" fill="white"/>
<path d="M342.795 55.4914L361.28 64.7752L366.95 103.769" fill="white"/>
<path d="M352.848 96.7887L366.95 103.769L362.405 120.576L362.092 121.729" fill="white"/>
<path d="M316.159 33.085L342.795 55.4894Z" fill="white"/>
<path d="M325.48 48.4078L342.795 55.4894L352.848 96.7867" fill="white"/>
<path d="M339.667 91.5177L352.848 96.7887L347.468 124.319" fill="white"/>
<path d="M294.685 24.2436L325.48 48.4078Z" fill="white"/>
<path d="M309.623 43.6673L325.479 48.4084L339.666 91.5169" fill="white"/>
<path d="M327.63 88.0525L339.667 91.5156L335.023 127.16" fill="white"/>
<path d="M274.952 18.2576L309.624 43.6677Z" fill="white"/>
<path d="M295.504 41.3752L309.623 43.6673L327.63 88.0525" fill="white"/>
<path d="M316.95 86.478L327.631 88.0537L324.562 129.55" fill="white"/>
<path d="M242.063 15.3923L257.303 15.2721L295.505 41.3768" fill="white"/>
<path d="M283.379 41.6086L295.504 41.3752L316.95 86.478" fill="white"/>
<path d="M307.814 86.8367L316.95 86.478L315.348 137.729L308.61 138.706" fill="white"/>
<path d="M195.225 15.1326L242.063 15.3903Z" fill="white"/>
<path d="M229.529 18.6731L242.063 15.3903L283.379 41.6086" fill="white"/>
<path d="M273.479 44.4044L283.379 41.6099L307.814 86.8367" fill="white"/>
<path d="M300.398 89.1471L307.814 86.8384L308.611 138.708L302.928 140.641" fill="white"/>
<path d="M169.338 26.2188L180.606 18.866L229.529 18.6731" fill="white"/>
<path d="M219.97 25.1289L229.529 18.6731L273.48 44.4031" fill="white"/>
<path d="M266.011 49.7541L273.48 44.4054L300.398 89.1471" fill="white"/>
<path d="M294.846 93.3905L300.398 89.1471L302.928 140.641" fill="white"/>
<path d="M299.427 143.459L302.928 140.64L300.466 145.504" fill="white"/>
<path d="M127.896 52.5463L169.338 26.2188Z" fill="white"/>
<path d="M161.696 37.1512L169.338 26.2204L219.97 25.1305" fill="white"/>
<path d="M213.61 34.7101L219.97 25.1305L266.01 49.7534" fill="white"/>
<path d="M261.142 57.6086L266.011 49.7541L294.846 93.3905" fill="white"/>
<path d="M291.278 99.5186L294.845 93.3881L298.502 141.631" fill="white"/>
<path d="M115.301 79.3687L119.598 64.1495L161.696 37.1512" fill="white"/>
<path d="M157.896 51.5485L161.696 37.1512L213.61 34.7101" fill="white"/>
<path d="M210.63 47.3106L213.61 34.7101L260.62 57.3551L261.142 57.6076" fill="white"/>
<path d="M259.001 67.8688L261.142 57.6065L291.279 99.5189" fill="white"/>
<path d="M289.782 107.454L291.279 99.5189L294.273 131.053" fill="white"/>
<path d="M115.301 79.3662L157.896 51.5466Z" fill="white"/>
<path d="M158.096 69.232L157.897 51.8225L157.896 51.5466L210.63 47.3095" fill="white"/>
<path d="M211.148 62.7672L210.63 47.3095L259.001 67.8688" fill="white"/>
<path d="M259.669 80.3971L259.001 67.8697L289.782 107.454" fill="white"/>
<path d="M290.409 117.073L289.782 107.454L291.098 119.855" fill="white"/>
<path d="M94.3674 122.981L115.302 79.3671L115.184 98.0163" fill="white"/>
<path d="M115.183 98.0175L158.096 69.2332Z" fill="white"/>
<path d="M162.384 89.9546L158.096 69.2332L211.148 62.7687" fill="white"/>
<path d="M215.226 80.8555L211.148 62.7687L259.669 80.3971" fill="white"/>
<path d="M263.18 95.0004L259.669 80.3971L290.41 117.074L293.171 128.228L298.045 140.733L298.503 141.633L298.504 141.636L300.466 145.504L301.441 147.433L301.547 147.638L302.751 150.011L302.886 150.281L304.177 152.827L304.963 154.374L313.815 168.915L321.562 179.962L321.87 180.399L322.023 180.62L324.456 184.089L333.967 196.156L336.181 198.966L336.421 199.269L336.696 199.619L344.234 208.254L344.324 208.356L350.317 215.22L365.068 230.596L380.674 245.46L389.531 253.168L389.553 253.187L392.464 255.72" fill="white"/>
<path d="M97.907 162.093L94.1006 141.045L115.184 98.0163L119.339 119.833" fill="white"/>
<path d="M119.339 119.833L162.384 89.9535Z" fill="white"/>
<path d="M170.764 113.381L162.384 89.9524L215.226 80.8533" fill="white"/>
<path d="M222.849 101.28L215.226 80.8533L263.18 94.9982" fill="white"/>
<path d="M269.509 111.44L263.254 95.1931L263.179 94.9999L293.17 128.227" fill="white"/>
<path d="M103.588 205.052L97.9069 162.094Z" fill="white"/>
<path d="M105.803 185.794L97.9069 162.095L119.339 119.835L127.788 144.473" fill="white"/>
<path d="M127.788 144.473L170.764 113.384Z" fill="white"/>
<path d="M183.156 139.122L170.764 113.382L222.849 101.28" fill="white"/>
<path d="M233.936 123.703L222.849 101.28L269.509 111.439" fill="white"/>
<path d="M278.581 129.436L269.509 111.439L298.045 140.731" fill="white"/>
<path d="M110.48 225.885L105.803 185.794Z" fill="white"/>
<path d="M117.713 211.739L105.804 185.793L127.789 144.472L140.453 171.515" fill="white"/>
<path d="M140.453 171.515L183.155 139.123Z" fill="white"/>
<path d="M199.385 166.716L183.156 139.124L233.937 123.705" fill="white"/>
<path d="M248.329 147.722L233.937 123.705L278.581 129.438" fill="white"/>
<path d="M290.255 148.676L278.582 129.438L304.963 154.374" fill="white"/>
<path d="M120.843 248.607L117.713 211.737Z" fill="white"/>
<path d="M133.48 239.463L117.896 212.056L117.713 211.737L140.453 171.514L157.164 200.48" fill="white"/>
<path d="M157.164 200.482L199.385 166.716Z" fill="white"/>
<path d="M219.193 195.643L199.385 166.714L248.33 147.72" fill="white"/>
<path d="M265.79 172.888L248.33 147.72L290.255 148.674" fill="white"/>
<path d="M304.339 168.801L290.255 148.676L294.191 152.057L294.334 152.18L313.815 168.915" fill="white"/>
<path d="M134.536 272.827L133.48 239.466Z" fill="white"/>
<path d="M152.844 268.453L133.48 239.464L157.164 200.482L177.652 230.82" fill="white"/>
<path d="M177.652 230.821L219.193 195.645Z" fill="white"/>
<path d="M242.227 225.343L219.193 195.643L265.79 172.888" fill="white"/>
<path d="M286.011 198.725L277.261 187.545L276.906 187.091L276.893 187.075L265.79 172.888L304.339 168.801" fill="white"/>
<path d="M320.587 189.438L304.34 168.8L324.456 184.088" fill="white"/>
<path d="M151.331 298.082L152.844 268.453Z" fill="white"/>
<path d="M175.472 298.137L152.845 268.45L177.652 230.818L201.555 261.942" fill="white"/>
<path d="M201.555 261.943L242.227 225.343Z" fill="white"/>
<path d="M268.059 255.231L242.228 225.344L286.012 198.726" fill="white"/>
<path d="M308.617 224.728L286.012 198.726L320.586 189.439" fill="white"/>
<path d="M338.697 210.195L320.586 189.439L336.696 199.619" fill="white"/>
<path d="M170.938 323.895L175.472 298.137Z" fill="white"/>
<path d="M200.933 327.932L175.472 298.138L201.555 261.943L228.425 293.228" fill="white"/>
<path d="M228.424 293.229L268.059 255.231Z" fill="white"/>
<path d="M296.179 284.695L268.059 255.231L308.617 224.728" fill="white"/>
<path d="M333.171 250.378L309.106 225.238L308.617 224.726L338.697 210.193" fill="white"/>
<path d="M358.333 230.667L338.697 210.193L350.316 215.218" fill="white"/>
<path d="M192.992 349.764L200.932 327.933Z" fill="white"/>
<path d="M228.733 357.237L200.932 327.933L228.424 293.229L257.731 324.039" fill="white"/>
<path d="M257.732 324.036L296.179 284.694Z" fill="white"/>
<path d="M326.027 313.137L296.179 284.694L333.171 250.378" fill="white"/>
<path d="M359.193 275.168L333.996 251.165L333.17 250.38L358.332 230.668" fill="white"/>
<path d="M379.116 250.461L358.333 230.667L365.068 230.593" fill="white"/>
<path d="M228.734 357.234L257.732 324.036L281.973 347.144" fill="white"/>
<path d="M326.027 313.139L359.193 275.169Z" fill="white"/>
<path d="M371.407 285.782L359.193 275.168L379.116 250.463" fill="white"/>
<path d="M392.189 261.838L390.886 260.703L390.54 260.403L379.116 250.461L380.674 245.457" fill="white"/>
<path d="M557.155 327.357L573.081 301.303Z" fill="white"/>
<path d="M573.082 301.303L539.879 260.747Z" fill="white"/>
<path d="M539.879 260.747L524.391 285.506Z" fill="white"/>
<path d="M524.391 285.507L556.574 326.615L557.155 327.358" fill="white"/>
<path d="M550.517 237.083L539.878 260.748L490.61 235.147" fill="white"/>
<path d="M490.61 235.147L476.804 256.664Z" fill="white"/>
<path d="M476.804 256.663L524.391 285.506L504.263 310.902" fill="white"/>
<path d="M500.218 214.563L490.611 235.146L439.058 231.619" fill="white"/>
<path d="M439.057 231.617L427.769 248.852Z" fill="white"/>
<path d="M427.769 248.855L476.804 256.664L458.987 278.726" fill="white"/>
<path d="M447.015 215.1L439.459 230.782L439.058 231.619L399.713 250.736L399.452 250.863" fill="white"/>
<path d="M405.599 238.327L399.452 250.864L392.218 261.797L392.189 261.84L391.74 262.521L391.319 263.155L391.182 263.364L390.822 263.905L390.128 264.748L389.827 265.112L386.805 268.777L386.636 268.982L379.842 277.222L376.876 280.23L376.154 280.965L373.062 284.102L372.885 284.282L366.693 290.565L361.754 294.864L351.604 303.694L334.845 316.359L332.141 318.143L331.948 318.272L316.72 328.322L307.031 333.906L306.927 333.967L297.568 339.357L277.746 349.257L258.923 357.284L257.625 357.836L237.584 364.936L236.985 365.105L220.635 369.691L217.997 370.431L215.897 370.854L199.223 374.227L194.764 374.742L181.602 376.265L176.947 376.34L176.112 376.352L165.45 376.523L151.045 375.013" fill="white"/>
<path d="M390.822 263.905L391.411 263.667L427.769 248.855L413.315 266.492" fill="white"/>
<path d="M115.141 236.105L97.1371 251.156L76.0077 271.447L57.744 291.957L42.666 312.379L31.0536 332.39L6.74377 391.56L2.08172 412.537L2 431.994L12.3448 477.652L17.2172 496.301L26.9985 512.653L61.5348 545.338L75.7121 558.623L94.3462 569.088L117.194 576.483L143.917 580.604L182.726 585.363L209.095 586L237.934 583.606L268.723 578.191L300.881 569.823L333.788 558.643L366.803 544.854L399.268 528.719L430.542 510.552L431.25 510.077L440.521 503.838L460.008 490.722L487.093 469.623L511.283 447.678L532.136 425.32L549.292 402.985L556.687 390.705L562.475 381.096L572.187 362.592L577.871 351.768L581.194 345.439L582.594 342.165L586.428 333.206L589.885 325.128L591.452 321.466L592.523 316.952L595.35 305.04L596.795 298.953L597.228 278.279L590.121 231.641L585.574 212.555L576.168 196.051L544.032 161.002L530.818 148.088L513.502 138.01L492.458 130.872L451.273 121.94L446.347 121.104L440.835 120.169L440.812 120.166L430.022 118.332L406.185 117.362L397.467 117.911L380.175 119.001L352.419 123.186L347.468 124.319L324.562 129.55" fill="white"/>
<path d="M583.935 276.38L573.082 301.304L581.194 345.439L566.118 370.447" fill="white"/>
<path d="M566.118 370.447L549.292 402.985Z" fill="white"/>
<path d="M536.362 354.06L557.155 327.358L566.117 370.448L546.425 396.027" fill="white"/>
<path d="M583.935 276.38L550.518 237.082Z" fill="white"/>
<path d="M556.208 214.928L550.519 237.082L500.218 214.563" fill="white"/>
<path d="M505.517 195.278L500.218 214.561L447.015 215.099" fill="white"/>
<path d="M451.541 199.586L447.015 215.1L405.6 238.325L409.177 226.513" fill="white"/>
<path d="M591.452 321.466L583.935 276.38L589.61 253.027" fill="white"/>
<path d="M589.61 253.026L556.207 214.927Z" fill="white"/>
<path d="M556.945 194.659L556.208 214.927L505.517 195.279" fill="white"/>
<path d="M506.492 177.622L505.517 195.28L451.541 199.588" fill="white"/>
<path d="M452.608 185.345L451.54 199.589L409.175 226.515" fill="white"/>
<path d="M410.152 215.627L409.177 226.513L394.313 258.631" fill="white"/>
<path d="M596.796 298.952L589.611 253.027L590.122 231.64L556.945 194.659" fill="white"/>
<path d="M552.826 176.595L556.945 194.659L506.493 177.62" fill="white"/>
<path d="M503.211 161.867L506.493 177.62L452.609 185.342" fill="white"/>
<path d="M450.251 172.599L452.609 185.344L410.152 215.629" fill="white"/>
<path d="M408.538 205.847L410.151 215.627L392.463 255.718" fill="white"/>
<path d="M585.574 212.555L552.826 176.595Z" fill="white"/>
<path d="M495.81 148.257L544.032 161.002L552.826 176.596L503.211 161.868" fill="white"/>
<path d="M495.81 148.257L503.21 161.868L450.25 172.598" fill="white"/>
<path d="M444.563 161.55L450.251 172.599L408.538 205.85" fill="white"/>
<path d="M404.393 197.328L408.539 205.848L389.407 252.367" fill="white"/>
<path d="M389.407 252.367L389.531 253.168Z" fill="white"/>
<path d="M484.504 136.977L495.81 148.256L444.563 161.548" fill="white"/>
<path d="M435.696 152.358L444.563 161.55L404.392 197.33" fill="white"/>
<path d="M397.822 190.201L404.393 197.328L386.295 245.699" fill="white"/>
<path d="M386.295 245.699L389.407 252.367Z" fill="white"/>
<path d="M381.316 240.085L386.294 245.698L387.301 251.224" fill="white"/>
<path d="M530.818 148.087L484.505 136.977Z" fill="white"/>
<path d="M469.554 128.173L484.505 136.977L435.697 152.357" fill="white"/>
<path d="M423.849 145.152L435.696 152.358L397.821 190.202" fill="white"/>
<path d="M388.96 184.569L397.821 190.202L381.316 240.087" fill="white"/>
<path d="M374.568 235.613L381.315 240.086L382.677 247.201" fill="white"/>
<path d="M513.502 138.01L469.552 128.173Z" fill="white"/>
<path d="M409.264 140.014L451.273 121.94L469.554 128.173L423.85 145.151" fill="white"/>
<path d="M409.264 140.014L423.85 145.151L388.96 184.568" fill="white"/>
<path d="M377.985 180.505L388.96 184.568L374.568 235.613" fill="white"/>
<path d="M367.403 232.817L374.569 235.612L375.599 240.623" fill="white"/>
<path d="M392.22 137.001L409.263 140.013L377.985 180.505" fill="white"/>
<path d="M365.103 178.064L377.985 180.507L366.314 231.783" fill="white"/>
<path d="M430.022 118.332L392.22 137.002Z" fill="white"/>
<path d="M373.024 136.131L392.22 137.001L365.103 178.062" fill="white"/>
<path d="M350.542 177.265L365.103 178.064L357.586 222.797" fill="white"/>
<path d="M406.185 117.362L373.025 136.132Z" fill="white"/>
<path d="M352.008 137.391L373.024 136.131L350.542 177.263" fill="white"/>
<path d="M334.556 178.104L350.542 177.265L347.017 211.441" fill="white"/>
<path d="M380.175 119.001L352.008 137.393Z" fill="white"/>
<path d="M329.523 140.735L352.009 137.392L334.556 178.104" fill="white"/>
<path d="M321.562 179.962L334.556 178.104L333.988 195.507L333.967 196.156" fill="white"/>
<path d="M352.419 123.188L329.523 140.737Z" fill="white"/>
<path d="M305.931 146.091L329.523 140.735L318.792 176.01" fill="white"/>
<path d="M324.562 129.55L305.931 146.09Z" fill="white"/>
<path d="M301.442 147.432L305.931 146.091L304.633 153.722" fill="white"/>
<path d="M97.1371 251.156L119.409 245.464Z" fill="white"/>
<path d="M76.0079 271.446L104.681 261.339Z" fill="white"/>
<path d="M104.68 261.338L119.944 246.634Z" fill="white"/>
<path d="M89.9394 277.973L104.681 261.339L132.429 269.099" fill="white"/>
<path d="M57.744 291.957L89.9399 277.974Z" fill="white"/>
<path d="M77.8268 294.498L89.9399 277.974L134.393 285.501" fill="white"/>
<path d="M134.393 285.501L139.264 279.937Z" fill="white"/>
<path d="M125.288 298.132L134.393 285.5L148.863 294.368" fill="white"/>
<path d="M42.666 312.379L77.8268 294.498Z" fill="white"/>
<path d="M68.5649 310.649L77.8268 294.498L125.288 298.134" fill="white"/>
<path d="M118.392 310.455L125.288 298.134L168.538 320.736" fill="white"/>
<path d="M23.1486 351.665L31.0536 332.39L68.5654 310.648" fill="white"/>
<path d="M62.3438 326.161L68.5654 310.648L118.392 310.454" fill="white"/>
<path d="M113.837 322.264L118.392 310.454L166.039 331.722L166.803 332.061" fill="white"/>
<path d="M166.803 332.063L171.12 324.11Z" fill="white"/>
<path d="M163.445 341.187L166.803 332.061L200.359 369.457" fill="white"/>
<path d="M200.359 369.457L204.403 361.804Z" fill="white"/>
<path d="M198.649 374.292L200.358 369.458L201.335 373.797" fill="white"/>
<path d="M6.74377 391.56L23.1483 351.666Z" fill="white"/>
<path d="M19.147 369.883L23.1486 351.665L62.3431 326.161" fill="white"/>
<path d="M59.3057 340.772L62.3438 326.161L113.837 322.264" fill="white"/>
<path d="M111.729 333.359L113.837 322.264L163.445 341.187" fill="white"/>
<path d="M161.976 349.753L163.445 341.189L194.764 374.742" fill="white"/>
<path d="M2.08172 412.537L19.147 369.883Z" fill="white"/>
<path d="M19.1887 386.722L19.147 369.883L59.3052 340.774" fill="white"/>
<path d="M59.5525 354.226L59.3052 340.774L111.728 333.361" fill="white"/>
<path d="M112.129 343.548L111.728 333.361L161.976 349.753" fill="white"/>
<path d="M162.436 357.606L161.976 349.752L186.934 375.646" fill="white"/>
<path d="M6.60463 449.573L2 431.993L19.1891 386.72" fill="white"/>
<path d="M23.3525 401.868L19.1891 386.72L59.5529 354.223" fill="white"/>
<path d="M63.1317 366.276L59.5529 354.223L112.129 343.545" fill="white"/>
<path d="M115.058 352.641L112.129 343.545L162.436 357.605" fill="white"/>
<path d="M164.836 364.611L162.437 357.607L180.869 376.277" fill="white"/>
<path d="M17.2172 496.301L6.60443 449.574Z" fill="white"/>
<path d="M15.9249 464.932L6.89481 450.052L6.60443 449.575L23.3518 401.87" fill="white"/>
<path d="M31.6482 415.034L23.3518 401.87L63.1311 366.279" fill="white"/>
<path d="M70.0343 376.694L63.1309 366.277L115.058 352.642" fill="white"/>
<path d="M120.501 360.477L115.058 352.642L164.836 364.61" fill="white"/>
<path d="M169.156 370.642L164.836 364.612L176.275 376.022" fill="white"/>
<path d="M41.636 526.367L26.9985 512.653L15.9249 464.932" fill="white"/>
<path d="M29.9019 477.747L15.9246 464.932L31.6482 415.034" fill="white"/>
<path d="M44.017 425.943L31.6482 415.034L70.0344 376.695" fill="white"/>
<path d="M80.1986 385.271L70.0343 376.694L119.706 360.731L120.501 360.477" fill="white"/>
<path d="M128.394 366.898L120.501 360.477L169.156 370.64L175.336 375.576L176.948 376.339" fill="white"/>
<path d="M41.6363 526.365L29.9022 477.745Z" fill="white"/>
<path d="M48.3955 487.726L29.9019 477.747L44.017 425.943" fill="white"/>
<path d="M60.3178 434.357L44.017 425.943L80.1986 385.271" fill="white"/>
<path d="M93.4924 391.825L80.1986 385.27L128.394 366.898" fill="white"/>
<path d="M138.626 371.778L128.394 366.898L175.336 375.575" fill="white"/>
<path d="M75.7121 558.623L41.636 526.367L60.9803 537.132" fill="white"/>
<path d="M60.9803 537.132L48.3961 487.726Z" fill="white"/>
<path d="M71.1653 494.628L48.3961 487.726L60.3179 434.356" fill="white"/>
<path d="M80.3311 440.076L60.318 434.358L93.4928 391.828" fill="white"/>
<path d="M109.728 396.209L93.4924 391.825L138.626 371.778" fill="white"/>
<path d="M109.728 396.209L151.045 375.011L138.626 371.778L166.582 376.503" fill="white"/>
<path d="M94.3462 569.09L60.9803 537.132L84.7822 544.683" fill="white"/>
<path d="M84.7819 544.681L71.1653 494.628Z" fill="white"/>
<path d="M97.8706 498.262L71.1646 494.63L80.3311 440.076" fill="white"/>
<path d="M103.752 442.943L80.3311 440.076L109.398 396.702L109.728 396.211L128.651 398.311" fill="white"/>
<path d="M117.193 576.484L84.7822 544.683L112.697 548.806" fill="white"/>
<path d="M112.697 548.804L97.8707 498.261Z" fill="white"/>
<path d="M128.086 498.49L97.8707 498.261L103.752 442.943" fill="white"/>
<path d="M130.203 442.856L103.752 442.941L128.651 398.309" fill="white"/>
<path d="M149.951 398.056L128.651 398.309L165.45 376.521" fill="white"/>
<path d="M174.081 581.311L143.917 580.604L112.697 548.804L144.272 549.353" fill="white"/>
<path d="M144.272 549.352L128.086 498.488Z" fill="white"/>
<path d="M161.286 495.248L128.086 498.49L130.203 442.857" fill="white"/>
<path d="M159.223 439.775L130.203 442.857L149.951 398.058" fill="white"/>
<path d="M173.258 395.424L149.951 398.056L181.603 376.263" fill="white"/>
<path d="M209.095 586L174.625 581.383L174.081 581.311" fill="white"/>
<path d="M207.159 578.526L174.08 581.31L144.272 549.352L178.957 546.247" fill="white"/>
<path d="M178.958 546.249L161.286 495.248Z" fill="white"/>
<path d="M196.862 488.547L161.286 495.248L159.223 439.773" fill="white"/>
<path d="M190.287 433.711L159.223 439.773L173.258 395.425" fill="white"/>
<path d="M198.153 390.441L173.59 395.36L173.258 395.425L190.419 381.415L190.64 381.234L199.223 374.227" fill="white"/>
<path d="M237.934 583.605L207.159 578.526Z" fill="white"/>
<path d="M242.553 572.254L207.159 578.526L178.957 546.247L216.124 539.493" fill="white"/>
<path d="M216.123 539.495L196.861 488.548Z" fill="white"/>
<path d="M234.142 478.474L196.862 488.547L190.286 433.71" fill="white"/>
<path d="M222.811 424.752L206.044 429.37L205.561 429.504L204.354 429.837L204.255 429.863L190.286 433.71L198.153 390.44" fill="white"/>
<path d="M224.178 383.176L198.153 390.441L217.997 370.431" fill="white"/>
<path d="M268.723 578.191L242.553 572.255Z" fill="white"/>
<path d="M279.588 562.576L242.553 572.254L216.124 539.493L255.058 529.176" fill="white"/>
<path d="M255.058 529.177L234.142 478.476Z" fill="white"/>
<path d="M272.392 465.201L234.142 478.474L222.811 424.752" fill="white"/>
<path d="M256.168 413.054L222.811 424.754L224.178 383.176" fill="white"/>
<path d="M250.843 373.752L224.178 383.176L237.585 364.935" fill="white"/>
<path d="M300.881 569.823L279.589 562.577Z" fill="white"/>
<path d="M317.539 549.648L279.588 562.576L255.058 529.176L294.994 515.464" fill="white"/>
<path d="M294.995 515.464L272.393 465.2Z" fill="white"/>
<path d="M310.851 448.964L272.392 465.199L256.168 413.051" fill="white"/>
<path d="M289.707 398.824L256.168 413.054L250.843 373.753" fill="white"/>
<path d="M277.636 362.342L250.843 373.752L257.626 357.835" fill="white"/>
<path d="M333.788 558.642L317.539 549.648Z" fill="white"/>
<path d="M355.648 533.709L317.539 549.648L294.994 515.464L335.13 498.611" fill="white"/>
<path d="M335.13 498.611L310.851 448.965Z" fill="white"/>
<path d="M348.741 430.088L310.852 448.965L289.707 398.823" fill="white"/>
<path d="M322.758 382.332L289.707 398.821L277.844 362.974L277.636 362.341" fill="white"/>
<path d="M304.039 349.16L277.636 362.344L277.746 349.257" fill="white"/>
<path d="M366.803 544.854L355.648 533.709Z" fill="white"/>
<path d="M393.144 515.066L355.648 533.71L335.131 498.613L374.647 478.948" fill="white"/>
<path d="M374.647 478.947L348.741 430.088Z" fill="white"/>
<path d="M385.289 408.946L348.74 430.087L322.758 382.333" fill="white"/>
<path d="M354.665 363.916L322.758 382.335L304.039 349.16" fill="white"/>
<path d="M329.545 334.455L314.474 343.142L314.18 343.312L304.039 349.157L303.65 348.569L297.569 339.355" fill="white"/>
<path d="M399.268 528.721L393.144 515.066Z" fill="white"/>
<path d="M429.269 494.095L393.143 515.065L374.737 479.122L374.647 478.947L412.739 456.868" fill="white"/>
<path d="M412.739 456.867L385.289 408.946Z" fill="white"/>
<path d="M419.762 385.975L385.29 408.948L354.666 363.915" fill="white"/>
<path d="M384.799 343.932L354.665 363.913L329.545 334.455" fill="white"/>
<path d="M353.66 318.52L329.545 334.457L316.72 328.322" fill="white"/>
<path d="M430.542 510.552L429.269 494.095Z" fill="white"/>
<path d="M463.297 471.223L429.27 494.094L412.74 456.867L448.632 432.829" fill="white"/>
<path d="M448.632 432.831L419.762 385.975Z" fill="white"/>
<path d="M451.474 361.642L419.762 385.975L419.438 385.584L384.799 343.933" fill="white"/>
<path d="M412.57 322.791L384.798 343.934L353.66 318.52" fill="white"/>
<path d="M375.928 301.66L353.66 318.519L334.845 316.357" fill="white"/>
<path d="M460.008 490.721L463.297 471.223Z" fill="white"/>
<path d="M494.551 446.921L463.296 471.222L448.632 432.828L481.61 407.328" fill="white"/>
<path d="M481.611 407.331L451.474 361.644Z" fill="white"/>
<path d="M479.816 336.45L451.473 361.643L412.57 322.791" fill="white"/>
<path d="M437.453 300.912L420.703 315.638L418.898 317.228L418.572 317.513L412.571 322.792L375.928 301.662" fill="white"/>
<path d="M395.934 284.204L390.869 288.623L390.852 288.639L375.928 301.66L351.605 303.691" fill="white"/>
<path d="M487.093 469.622L494.551 446.921Z" fill="white"/>
<path d="M522.433 421.687L494.551 446.923L481.611 407.331L511.036 380.895" fill="white"/>
<path d="M511.036 380.892L479.816 336.448Z" fill="white"/>
<path d="M504.264 310.904L479.816 336.451L437.453 300.912" fill="white"/>
<path d="M458.987 278.726L437.453 300.912L395.935 284.207" fill="white"/>
<path d="M413.315 266.49L395.934 284.204L366.693 290.563" fill="white"/>
<path d="M511.283 447.677L522.432 421.685Z" fill="white"/>
<path d="M546.425 396.027L522.433 421.687L511.036 380.895L536.362 354.06" fill="white"/>
<path d="M532.136 425.319L546.427 396.025L536.364 354.058L509.447 317.871L509.416 317.829L504.264 310.901L458.988 278.724L413.315 266.49L379.843 277.219" fill="white"/>
<path d="M205.317 362.772L207.689 372.514Z" fill="white"/>
<path d="M220.635 369.691L228.733 357.237L236.985 365.105" fill="white"/>
<path d="M307.032 333.903L326.027 313.137L331.948 318.27" fill="white"/>
<path d="M476.652 477.755L478.177 478.408L465.419 486.506" fill="white"/>
<path d="M478.177 478.41L480.497 474.762M478.177 478.408L476.652 477.755M478.177 478.408L465.419 486.506M478.177 478.408L504.28 486.671M504.28 486.671L463.968 511.042L440.521 503.838M504.28 486.671L527.431 490.846M504.281 486.673L531.599 441.691M531.598 441.69L520.337 437.971M553.62 446.002L531.599 441.689L533.929 422.988M440.521 503.838L431.25 510.077M440.521 503.838L460.008 490.722L487.093 469.623L511.283 447.678L532.136 425.32L549.292 402.985M527.431 490.848L553.62 446.003M572.457 446.424L587.839 443.023M572.457 446.424L553.621 446.004L557.462 392.576M572.457 446.424L573.941 393.283M557.461 392.574L555.776 392.215M573.941 393.282L557.461 392.575L556.687 390.705M556.687 390.705L562.475 381.096L572.187 362.592M556.687 390.705L549.292 402.985M431.25 510.077L441.495 511.811L486.267 514.849M431.25 510.077L430.542 510.552M486.267 514.849L505.437 514.769L521.196 510.883L563.485 487.052L575.897 479.332L584.372 468.009L607.526 425.411M486.267 514.849L527.43 490.847L547.26 490.945M486.267 514.849L463.967 511.042L432.642 509.139M607.526 425.411L611.664 411.665M607.526 425.411L599.567 435.951L597.72 384.8M607.526 425.411L604.726 375.889M611.664 411.665L612 395.011L608.7 349.78M611.664 411.665L608.383 364.129M608.7 349.78L605.735 333.121M608.7 349.78L608.383 364.131M608.7 349.78L589.885 325.128M605.735 333.121L599.597 314.463L595.35 305.04M605.735 333.121L592.523 316.952M595.35 305.04L596.795 298.953L597.228 278.279L590.121 231.641L585.574 212.555M595.35 305.04L592.523 316.952M547.261 490.944L563.486 487.05L587.839 443.021M547.261 490.944L572.456 446.421M547.261 490.944L505.437 514.767M587.839 443.023L599.568 435.952L575.898 479.333M587.839 443.023L587.421 390.654M587.421 390.652L573.941 393.281L565.399 375.521M587.421 390.652L597.721 384.799M587.421 390.652L572.187 362.592M597.721 384.799L604.727 375.888M597.721 384.799L577.871 351.768M572.187 362.592L577.871 351.768M604.726 375.889L608.383 364.131M604.726 375.889L582.594 342.165M577.871 351.768L581.194 345.439M608.383 364.131L586.428 333.206M582.594 342.165L581.194 345.439M582.594 342.165L586.428 333.206M589.885 325.128L586.428 333.206M589.885 325.128L591.452 321.466M592.523 316.952L591.452 321.466M599.597 314.464L594.498 308.628M436.921 112.846L440.835 120.168M446.347 121.104L436.92 112.848L412.209 92.9832M446.347 121.104L451.273 121.94M446.347 121.104L440.835 120.169L440.812 120.166L430.022 118.332L406.185 117.362M412.209 92.9832L420.725 104.024M412.209 92.9832L387.41 74.8041L362.888 58.5908L339.015 44.6061M339.015 44.6061L316.159 33.085M339.015 44.6061L361.28 64.7734M316.159 33.085L294.685 24.2436M316.159 33.085L342.795 55.4894M294.685 24.2436L274.952 18.2576M294.685 24.2436L325.48 48.4078L342.795 55.4894M274.952 18.2576L257.302 15.2716L212.878 15L195.225 15.1341L180.606 18.867L139.961 44.6809L127.896 52.5473L119.598 64.1485L98.6165 108.159L94.3666 122.981L94.1093 140.391L94.1006 141.045M274.952 18.2576L309.624 43.6677M94.1006 141.045L100.239 186.475L103.588 205.052M94.1006 141.045L97.907 162.093M94.1006 141.045L115.184 98.0163M103.588 205.052L110.479 225.883L115.141 236.105M103.588 205.052L97.9069 162.094M115.141 236.105L119.409 245.464M115.141 236.105L97.1371 251.156M119.409 245.464L119.944 246.636L120.843 248.608L134.535 272.826L151.331 298.082M119.409 245.464L97.1371 251.156M151.331 298.082L168.538 320.736M151.331 298.082L152.844 268.453L133.48 239.464L157.164 200.482M168.538 320.736L170.938 323.896L171.12 324.11M168.538 320.736L125.288 298.134M171.12 324.11L166.803 332.063M171.12 324.11L192.992 349.764M192.992 349.764L204.403 361.804M192.992 349.764L200.932 327.933M204.403 361.804L205.317 362.772M204.403 361.804L200.359 369.457L166.803 332.061M205.317 362.772L213.447 371.349M205.317 362.772L207.689 372.514M420.725 104.024L416.87 117.797M420.725 104.024L400.55 89.2426M420.726 104.025L440.812 120.167M387.411 74.8036L400.552 89.2427M400.552 89.2427L380.634 76.0891M400.552 89.2427L397.467 117.911M397.467 117.911L406.185 117.362M397.467 117.911L380.175 119.001M362.889 58.5893L380.634 76.0877M361.28 64.7752L380.634 76.0908L381.745 112.332M361.28 64.7752L342.795 55.4914M361.28 64.7752L366.95 103.769M381.745 112.329L390.887 118.324M381.745 112.329L366.951 103.767M381.745 112.329L379.316 119.129M366.95 103.769L352.848 96.7887M366.95 103.769L362.405 120.576L362.092 121.729M352.848 96.7887L339.667 91.5177M352.848 96.7887L347.468 124.319M342.795 55.4894L352.848 96.7867M347.468 124.319L352.419 123.186L380.175 119.001M347.468 124.319L324.562 129.55M309.623 43.6673L325.479 48.4084L339.666 91.5169M309.623 43.6673L295.504 41.3752M309.623 43.6673L327.63 88.0525L339.667 91.5156L335.023 127.16M295.504 41.3752L283.379 41.6086L242.063 15.3903M295.504 41.3752L316.95 86.478M316.95 86.478L327.631 88.0537L324.562 129.55M316.95 86.478L307.814 86.8367L283.379 41.6099L273.479 44.4044M316.95 86.478L315.348 137.729L308.61 138.706M324.562 129.55L305.931 146.09M242.063 15.3923L257.303 15.2721L295.505 41.3768M195.225 15.1326L242.063 15.3903M242.063 15.3903L229.529 18.6731M229.529 18.6731L219.97 25.1289M229.529 18.6731L180.606 18.866L169.338 26.2188L127.896 52.5463M229.529 18.6731L273.48 44.4031M300.398 89.1471L307.814 86.8384L308.611 138.708L302.928 140.641L300.398 89.1471ZM300.398 89.1471L294.846 93.3905L266.011 49.7541M300.398 89.1471L273.48 44.4054L266.011 49.7541M266.011 49.7541L261.142 57.6086M299.427 143.459L302.928 140.64L300.466 145.504M300.466 145.504L301.441 147.433L301.547 147.638L302.751 150.011L302.886 150.281L304.177 152.827L304.963 154.374M300.466 145.504L298.504 141.636L298.503 141.633L298.045 140.733L293.171 128.228L290.41 117.074L259.669 80.3971M161.696 37.1512L169.338 26.2204L219.97 25.1305M161.696 37.1512L157.896 51.5485M161.696 37.1512L119.598 64.1495L115.301 79.3687M161.696 37.1512L213.61 34.7101M219.97 25.1305L213.61 34.7101M219.97 25.1305L266.01 49.7534M213.61 34.7101L210.63 47.3106M213.61 34.7101L260.62 57.3551L261.142 57.6076M291.278 99.5186L294.845 93.3881L298.502 141.631M291.279 99.5189L289.782 107.454M291.279 99.5189L261.142 57.6065L259.001 67.8688L210.63 47.3095M291.279 99.5189L294.273 131.053M289.782 107.454L290.409 117.073M289.782 107.454L291.098 119.855M289.782 107.454L259.001 67.8697L259.669 80.3971M115.301 79.3662L157.896 51.5466M157.896 51.5466L157.897 51.8225L158.096 69.232M157.896 51.5466L210.63 47.3095M210.63 47.3095L211.148 62.7672M259.669 80.3971L263.18 95.0004M259.669 80.3971L211.148 62.7687M94.3674 122.981L115.302 79.3671L115.184 98.0163M115.184 98.0163L119.339 119.833L162.384 89.9535M115.183 98.0175L158.096 69.2332M158.096 69.2332L162.384 89.9546M158.096 69.2332L211.148 62.7687M211.148 62.7687L215.226 80.8555M304.963 154.374L313.815 168.915M304.963 154.374L278.582 129.438L290.255 148.676M313.815 168.915L321.562 179.962M313.815 168.915L294.334 152.18L294.191 152.057L290.255 148.676M321.562 179.962L321.87 180.399L322.023 180.62L324.456 184.089L333.967 196.156M321.562 179.962L334.556 178.104M333.967 196.156L336.181 198.966L336.421 199.269L336.696 199.619M333.967 196.156L333.988 195.507L334.556 178.104M336.696 199.619L344.234 208.254L344.324 208.356L350.317 215.22L365.068 230.596L380.674 245.46L389.531 253.168M336.696 199.619L320.586 189.439M389.531 253.168L389.553 253.187L392.464 255.72M389.531 253.168L389.407 252.367M170.764 113.381L162.384 89.9524L215.226 80.8533M215.226 80.8533L222.849 101.28M215.226 80.8533L263.18 94.9982M222.849 101.28L170.764 113.382L183.156 139.122M222.849 101.28L233.936 123.703M222.849 101.28L269.509 111.439M269.509 111.44L263.254 95.1931L263.179 94.9999L293.17 128.227M170.764 113.384L127.788 144.473L119.339 119.835L97.9069 162.095L105.803 185.794L110.48 225.885M269.509 111.439L278.581 129.436M269.509 111.439L298.045 140.731M117.713 211.739L105.804 185.793L127.789 144.472L140.453 171.515L183.155 139.123M233.937 123.705L183.156 139.124L199.385 166.716L157.164 200.482M233.937 123.705L248.329 147.722M233.937 123.705L278.581 129.438M290.255 148.676L304.339 168.801L265.79 172.888M120.843 248.607L117.713 211.737M117.713 211.737L117.896 212.056L133.48 239.463M117.713 211.737L140.453 171.514L157.164 200.48M157.164 200.482L177.652 230.82M219.193 195.643L199.385 166.714L248.33 147.72M219.193 195.643L242.227 225.343L201.555 261.943M219.193 195.643L265.79 172.888M248.33 147.72L265.79 172.888M248.33 147.72L290.255 148.674M265.79 172.888L276.893 187.075L276.906 187.091L277.261 187.545L286.011 198.725M134.536 272.827L133.48 239.466M177.652 230.821L219.193 195.645M320.587 189.438L304.34 168.8L324.456 184.088M201.555 261.942L177.652 230.818L152.845 268.45L175.472 298.137L170.938 323.895M201.555 261.943L175.472 298.138L200.933 327.932M201.555 261.943L228.425 293.228M268.059 255.231L242.228 225.344L286.012 198.726M268.059 255.231L228.424 293.229M268.059 255.231L296.179 284.695M268.059 255.231L308.617 224.728L286.012 198.726M286.012 198.726L320.586 189.439M320.586 189.439L338.697 210.195M228.424 293.229L200.932 327.933M228.424 293.229L257.731 324.039M338.697 210.193L350.316 215.218M338.697 210.193L308.617 224.726L309.106 225.238L333.171 250.378L296.179 284.694M338.697 210.193L358.333 230.667M358.333 230.667L365.068 230.593M358.333 230.667L379.116 250.461M200.932 327.933L228.733 357.237M228.733 357.237L220.635 369.691M228.733 357.237L236.985 365.105M257.732 324.036L296.179 284.694M257.732 324.036L228.734 357.234M257.732 324.036L281.973 347.144M296.179 284.694L326.027 313.137M326.027 313.137L331.948 318.27M326.027 313.137L307.032 333.903M359.193 275.168L371.407 285.782M359.193 275.168L333.996 251.165L333.17 250.38L358.332 230.668M359.193 275.168L379.116 250.463M379.116 250.461L390.54 260.403L390.886 260.703L392.189 261.838M379.116 250.461L380.674 245.457M326.027 313.139L359.193 275.169M557.155 327.357L573.081 301.303M573.082 301.303L539.879 260.747L524.391 285.506M524.391 285.506L476.804 256.663M524.391 285.506L504.263 310.902M524.391 285.507L556.574 326.615L557.155 327.358M557.155 327.358L536.362 354.06L511.036 380.895M557.155 327.358L566.117 370.448L546.425 396.027L522.433 421.687M550.517 237.083L539.878 260.748L490.61 235.147L476.804 256.664M476.804 256.664L427.769 248.855M476.804 256.664L458.987 278.726L437.453 300.912M439.058 231.619L439.459 230.782L447.015 215.1M439.058 231.619L490.611 235.146L500.218 214.563L550.519 237.082L556.208 214.928M439.058 231.619L399.713 250.736L399.452 250.863M439.057 231.617L427.769 248.852M427.769 248.855L391.411 263.667L390.822 263.905M427.769 248.855L413.315 266.492M447.015 215.1L451.541 199.586M447.015 215.1L405.6 238.325L409.177 226.513M405.599 238.327L399.452 250.864L392.218 261.797L392.189 261.84L391.74 262.521L391.319 263.155L391.182 263.364L390.822 263.905M390.822 263.905L390.128 264.748L389.827 265.112L386.805 268.777L386.636 268.982L379.842 277.222L376.876 280.23L376.154 280.965L373.062 284.102L372.885 284.282L366.693 290.565L361.754 294.864L351.604 303.694L334.845 316.359L332.141 318.143L331.948 318.272L316.72 328.322M316.72 328.322L329.545 334.457L353.66 318.52L384.798 343.934L412.57 322.791L451.473 361.643L479.816 336.45M316.72 328.322L307.031 333.906L306.927 333.967L297.568 339.357L277.746 349.257M277.746 349.257L277.636 362.344L304.039 349.16L322.758 382.335L354.665 363.916M277.746 349.257L258.923 357.284L257.625 357.836L237.584 364.936L236.985 365.105M236.985 365.105L220.635 369.691M220.635 369.691L217.997 370.431M217.997 370.431L215.897 370.854L199.223 374.227M217.997 370.431L198.153 390.441M199.223 374.227L190.64 381.234L190.419 381.415L173.258 395.425M199.223 374.227L194.764 374.742M194.764 374.742L181.602 376.265L176.947 376.34L176.112 376.352L165.45 376.523L151.045 375.013M194.764 374.742L163.445 341.189L161.976 349.753L111.728 333.361M97.1371 251.156L76.0077 271.447L57.744 291.957M57.744 291.957L42.666 312.379M57.744 291.957L89.9399 277.974M42.666 312.379L31.0536 332.39M42.666 312.379L77.8268 294.498M31.0536 332.39L6.74377 391.56M31.0536 332.39L23.1486 351.665M31.0536 332.39L68.5654 310.648M6.74377 391.56L2.08172 412.537M6.74377 391.56L23.1483 351.666M2.08172 412.537L2 431.994L12.3448 477.652L17.2172 496.301M2.08172 412.537L19.147 369.883M17.2172 496.301L26.9985 512.653M17.2172 496.301L6.60443 449.574M26.9985 512.653L61.5348 545.338L75.7121 558.623M26.9985 512.653L41.636 526.367M26.9985 512.653L15.9249 464.932L6.89481 450.052L6.60443 449.575L23.3518 401.87M75.7121 558.623L94.3462 569.088L117.194 576.483L143.917 580.604M75.7121 558.623L41.636 526.367M143.917 580.604L182.726 585.363L209.095 586M143.917 580.604L174.081 581.311L174.625 581.383L209.095 586M143.917 580.604L112.697 548.804L144.272 549.353M209.095 586L237.934 583.606L268.723 578.191M268.723 578.191L300.881 569.823M268.723 578.191L242.553 572.255M300.881 569.823L333.788 558.643L366.803 544.854M300.881 569.823L279.589 562.577M366.803 544.854L355.648 533.709L317.539 549.648M366.803 544.854L399.268 528.719L430.542 510.552M430.542 510.552L429.269 494.095L393.143 515.065L374.737 479.122L374.647 478.947M549.292 402.985L566.118 370.447L581.194 345.439M581.194 345.439L573.082 301.304L583.935 276.38M591.452 321.466L583.935 276.38M585.574 212.555L576.168 196.051L544.032 161.002M585.574 212.555L552.826 176.595L556.945 194.659M544.032 161.002L530.818 148.088L513.502 138.01M544.032 161.002L495.81 148.257M544.032 161.002L552.826 176.596L503.211 161.868M513.502 138.01L492.458 130.872L451.273 121.94M513.502 138.01L469.552 128.173M451.273 121.94L409.264 140.014L423.85 145.151M451.273 121.94L469.554 128.173M406.185 117.362L373.025 136.132M380.175 119.001L352.008 137.393M583.935 276.38L550.518 237.082M583.935 276.38L589.61 253.027M505.517 195.278L500.218 214.561L447.015 215.099M409.177 226.513L410.152 215.627M409.177 226.513L394.313 258.631M589.61 253.026L556.207 214.927M556.945 194.659L556.208 214.927L505.517 195.279M556.945 194.659L590.122 231.64L589.611 253.027L596.796 298.952M556.945 194.659L506.493 177.62M506.492 177.622L505.517 195.28L451.541 199.588M452.608 185.345L451.54 199.589L409.175 226.515M506.493 177.62L503.211 161.867M506.493 177.62L452.609 185.342M450.251 172.599L452.609 185.344L410.152 215.629M450.251 172.599L444.563 161.55M450.251 172.599L408.538 205.85M408.538 205.847L410.151 215.627L392.463 255.718M495.81 148.257L503.21 161.868L450.25 172.598M444.563 161.55L435.696 152.358M444.563 161.55L404.392 197.33M404.393 197.328L408.539 205.848L389.407 252.367M404.393 197.328L397.822 190.201M404.393 197.328L386.295 245.699L389.407 252.367M484.504 136.977L495.81 148.256L444.563 161.548M435.696 152.358L423.849 145.152M435.696 152.358L397.821 190.202M381.316 240.085L386.294 245.698L387.301 251.224M530.818 148.087L484.505 136.977M484.505 136.977L469.554 128.173M484.505 136.977L435.697 152.357M469.554 128.173L423.85 145.151M397.821 190.202L388.96 184.569M397.821 190.202L381.316 240.087M382.677 247.201L381.315 240.086L374.568 235.613L388.96 184.568M423.85 145.151L388.96 184.568M388.96 184.568L377.985 180.505L409.263 140.013L392.22 137.001M367.403 232.817L374.569 235.612L375.599 240.623M392.22 137.001L373.024 136.131M392.22 137.001L365.103 178.062M365.103 178.064L377.985 180.507L366.314 231.783M365.103 178.064L350.542 177.265M365.103 178.064L357.586 222.797M430.022 118.332L392.22 137.002M373.024 136.131L352.008 137.391M373.024 136.131L350.542 177.263M350.542 177.265L334.556 178.104M350.542 177.265L347.017 211.441M334.556 178.104L352.009 137.392L329.523 140.735M329.523 140.735L305.931 146.091M329.523 140.735L318.792 176.01M352.419 123.188L329.523 140.737M305.931 146.091L301.442 147.432M305.931 146.091L304.633 153.722M76.0079 271.446L104.681 261.339M104.681 261.339L89.9394 277.973M104.681 261.339L132.429 269.099M104.68 261.338L119.944 246.634M89.9399 277.974L77.8268 294.498M89.9399 277.974L134.393 285.501L139.264 279.937M77.8268 294.498L68.5649 310.649M77.8268 294.498L125.288 298.134M125.288 298.132L134.393 285.5L148.863 294.368M125.288 298.134L118.392 310.455M23.1486 351.665L19.147 369.883M23.1486 351.665L62.3431 326.161M68.5654 310.648L62.3438 326.161M68.5654 310.648L118.392 310.454M62.3438 326.161L59.3057 340.772M62.3438 326.161L113.837 322.264M118.392 310.454L113.837 322.264M118.392 310.454L166.039 331.722L166.803 332.061M113.837 322.264L111.729 333.359M113.837 322.264L163.445 341.187L166.803 332.061M198.649 374.292L200.358 369.458L201.335 373.797M19.147 369.883L19.1887 386.722M19.147 369.883L59.3052 340.774M59.3052 340.774L59.5525 354.226M59.3052 340.774L111.728 333.361M111.728 333.361L112.129 343.548M162.436 357.606L161.976 349.752L186.934 375.646M6.60463 449.573L2 431.993L19.1891 386.72M19.1891 386.72L23.3525 401.868M19.1891 386.72L59.5529 354.223M59.5529 354.223L63.1317 366.276M59.5529 354.223L112.129 343.545M112.129 343.545L115.058 352.641M112.129 343.545L162.436 357.605M164.836 364.611L162.437 357.607L180.869 376.277M23.3518 401.87L31.6482 415.034M23.3518 401.87L63.1311 366.279M31.6482 415.034L44.017 425.943M31.6482 415.034L15.9246 464.932L29.9019 477.747M31.6482 415.034L70.0344 376.695M70.0343 376.694L63.1309 366.277L115.058 352.642M70.0343 376.694L80.1986 385.271L44.017 425.943M70.0343 376.694L119.706 360.731L120.501 360.477M115.058 352.642L120.501 360.477M115.058 352.642L164.836 364.61M120.501 360.477L128.394 366.898M120.501 360.477L169.156 370.64L175.336 375.576L176.948 376.339M169.156 370.642L164.836 364.612L176.275 376.022M41.636 526.367L60.9803 537.132M29.9019 477.747L48.3955 487.726M29.9019 477.747L44.017 425.943M44.017 425.943L60.3178 434.357M41.6363 526.365L29.9022 477.745M93.4924 391.825L80.1986 385.27L128.394 366.898M93.4924 391.825L109.728 396.209L151.045 375.011L138.626 371.778M93.4924 391.825L138.626 371.778M128.394 366.898L138.626 371.778M128.394 366.898L175.336 375.575M138.626 371.778L166.582 376.503M60.9803 537.132L48.3961 487.726M60.9803 537.132L94.3462 569.09M60.9803 537.132L84.7822 544.683M48.3961 487.726L71.1653 494.628L84.7819 544.681M48.3961 487.726L60.3179 434.356M80.3311 440.076L60.318 434.358L93.4928 391.828M80.3311 440.076L71.1646 494.63L97.8706 498.262M80.3311 440.076L103.752 442.943L97.8707 498.261M80.3311 440.076L109.398 396.702L109.728 396.211L128.651 398.311M84.7822 544.683L117.193 576.484M84.7822 544.683L112.697 548.806M112.697 548.804L97.8707 498.261M97.8707 498.261L128.086 498.49M128.086 498.49L161.286 495.248M128.086 498.49L130.203 442.857M130.203 442.856L103.752 442.941L128.651 398.309M128.651 398.309L149.951 398.056M128.651 398.309L165.45 376.521M149.951 398.056L173.258 395.424M149.951 398.056L181.603 376.263M144.272 549.352L128.086 498.488M144.272 549.352L174.08 581.31L207.159 578.526M144.272 549.352L178.957 546.247M161.286 495.248L178.958 546.249M161.286 495.248L196.862 488.547M161.286 495.248L159.223 439.773M130.203 442.857L159.223 439.775M130.203 442.857L149.951 398.058M207.159 578.526L237.934 583.605M207.159 578.526L242.553 572.254M207.159 578.526L178.957 546.247M178.957 546.247L216.124 539.493M196.862 488.547L234.142 478.474M196.862 488.547L190.286 433.71M159.223 439.773L190.287 433.711M159.223 439.773L173.258 395.425M173.258 395.425L173.59 395.36L198.153 390.441M198.153 390.441L224.178 383.176M242.553 572.254L279.588 562.576M242.553 572.254L216.124 539.493M216.124 539.493L255.058 529.176M216.123 539.495L196.861 488.548M234.142 478.474L272.392 465.201M234.142 478.474L222.811 424.752L206.044 429.37L205.561 429.504L204.354 429.837L204.255 429.863L190.286 433.71M190.286 433.71L198.153 390.44M224.178 383.176L222.811 424.754L256.168 413.054M224.178 383.176L250.843 373.752M224.178 383.176L237.585 364.935M279.588 562.576L317.539 549.648M279.588 562.576L255.058 529.176M255.058 529.176L294.994 515.464M255.058 529.177L234.142 478.476M256.168 413.054L289.707 398.824M256.168 413.054L250.843 373.753M250.843 373.752L257.626 357.835M250.843 373.752L277.636 362.342M317.539 549.648L333.788 558.642M317.539 549.648L294.994 515.464M294.994 515.464L335.13 498.611L310.851 448.965M294.995 515.464L272.393 465.2M310.851 448.964L272.392 465.199L256.168 413.051M289.707 398.823L310.852 448.965L348.741 430.088L374.647 478.947M322.758 382.332L289.707 398.821L277.844 362.974L277.636 362.341M374.647 478.948L335.131 498.613L355.648 533.71L393.144 515.066L399.268 528.721M374.647 478.947L412.739 456.868M322.758 382.333L348.74 430.087L385.289 408.946L412.739 456.867M297.569 339.355L303.65 348.569L304.039 349.157L314.18 343.312L314.474 343.142L329.545 334.455L354.665 363.913L384.799 343.932M419.762 385.975L419.438 385.584L384.799 343.933M419.762 385.975L385.29 408.948L354.666 363.915M419.762 385.975L448.632 432.831M419.762 385.975L451.474 361.642M448.632 432.829L412.74 456.867L429.27 494.094L463.297 471.223L460.008 490.721M375.928 301.66L353.66 318.519L334.845 316.357M375.928 301.66L390.852 288.639L390.869 288.623L395.934 284.204M375.928 301.66L351.605 303.691M481.61 407.328L448.632 432.828L463.296 471.222L494.551 446.921L487.093 469.622M481.611 407.331L451.474 361.644M481.611 407.331L494.551 446.923L522.433 421.687M481.611 407.331L511.036 380.895M437.453 300.912L420.703 315.638L418.898 317.228L418.572 317.513L412.571 322.792L375.928 301.662M437.453 300.912L479.816 336.451L504.264 310.904M437.453 300.912L395.935 284.207M395.934 284.204L413.315 266.49M395.934 284.204L366.693 290.563M522.433 421.687L511.036 380.895M511.036 380.892L479.816 336.448M413.315 266.49L458.988 278.724L504.264 310.901L509.416 317.829L509.447 317.871L536.364 354.058L546.427 396.025L532.136 425.319M413.315 266.49L379.843 277.219M511.283 447.677L522.432 421.685" stroke="black" stroke-width="3" stroke-miterlimit="10" stroke-linecap="round" stroke-linejoin="round"/>
</svg>
