<svg width="604" height="658" viewBox="0 0 604 658" fill="none" xmlns="http://www.w3.org/2000/svg">
<path d="M196.068 61.7473C244.343 -17.7289 359.689 -17.7289 407.963 61.7473L432.807 102.647L480.649 103.712C573.615 105.781 631.287 205.674 586.596 287.219L563.598 329.184L586.596 371.149C631.287 452.694 573.615 552.587 480.649 554.656L432.807 555.721L407.963 596.621C359.689 676.097 244.343 676.097 196.068 596.621L171.225 555.721L123.382 554.656C30.4167 552.587 -27.2562 452.694 17.4348 371.149L40.4337 329.184L17.4348 287.219C-27.2562 205.674 30.4167 105.781 123.383 103.712L171.225 102.647L196.068 61.7473Z" fill="white" stroke="black" stroke-width="3" stroke-linecap="round" stroke-linejoin="round"/>
</svg>
